solid cleo_rover_display_roof_turret_v1
  facet normal 0 0 -1
    outer loop
      vertex 0 -38 0
      vertex 32 38 0
      vertex 32 -38 0
    endloop
  endfacet
  facet normal 0 0 -1
    outer loop
      vertex 0 -38 0
      vertex 0 38 0
      vertex 32 38 0
    endloop
  endfacet
  facet normal 0 0 1
    outer loop
      vertex 0 -38 3
      vertex 32 -38 3
      vertex 32 38 3
    endloop
  endfacet
  facet normal 0 0 1
    outer loop
      vertex 0 -38 3
      vertex 32 38 3
      vertex 0 38 3
    endloop
  endfacet
  facet normal -1 0 0
    outer loop
      vertex 0 -38 0
      vertex 0 -38 3
      vertex 0 38 3
    endloop
  endfacet
  facet normal -1 0 0
    outer loop
      vertex 0 -38 0
      vertex 0 38 3
      vertex 0 38 0
    endloop
  endfacet
  facet normal 1 0 0
    outer loop
      vertex 32 -38 0
      vertex 32 38 0
      vertex 32 38 3
    endloop
  endfacet
  facet normal 1 0 0
    outer loop
      vertex 32 -38 0
      vertex 32 38 3
      vertex 32 -38 3
    endloop
  endfacet
  facet normal 0 -1 0
    outer loop
      vertex 0 -38 0
      vertex 32 -38 0
      vertex 32 -38 3
    endloop
  endfacet
  facet normal 0 -1 0
    outer loop
      vertex 0 -38 0
      vertex 32 -38 3
      vertex 0 -38 3
    endloop
  endfacet
  facet normal 0 1 0
    outer loop
      vertex 0 38 0
      vertex 0 38 3
      vertex 32 38 3
    endloop
  endfacet
  facet normal 0 1 0
    outer loop
      vertex 0 38 0
      vertex 32 38 3
      vertex 32 38 0
    endloop
  endfacet
  facet normal 0 0 -1
    outer loop
      vertex 20 -36 3
      vertex 23 36 3
      vertex 23 -36 3
    endloop
  endfacet
  facet normal 0 0 -1
    outer loop
      vertex 20 -36 3
      vertex 20 36 3
      vertex 23 36 3
    endloop
  endfacet
  facet normal 0 0 1
    outer loop
      vertex 20 -36 56
      vertex 23 -36 56
      vertex 23 36 56
    endloop
  endfacet
  facet normal 0 0 1
    outer loop
      vertex 20 -36 56
      vertex 23 36 56
      vertex 20 36 56
    endloop
  endfacet
  facet normal -1 0 0
    outer loop
      vertex 20 -36 3
      vertex 20 -36 56
      vertex 20 36 56
    endloop
  endfacet
  facet normal -1 0 0
    outer loop
      vertex 20 -36 3
      vertex 20 36 56
      vertex 20 36 3
    endloop
  endfacet
  facet normal 1 0 0
    outer loop
      vertex 23 -36 3
      vertex 23 36 3
      vertex 23 36 56
    endloop
  endfacet
  facet normal 1 0 0
    outer loop
      vertex 23 -36 3
      vertex 23 36 56
      vertex 23 -36 56
    endloop
  endfacet
  facet normal 0 -1 0
    outer loop
      vertex 20 -36 3
      vertex 23 -36 3
      vertex 23 -36 56
    endloop
  endfacet
  facet normal 0 -1 0
    outer loop
      vertex 20 -36 3
      vertex 23 -36 56
      vertex 20 -36 56
    endloop
  endfacet
  facet normal 0 1 0
    outer loop
      vertex 20 36 3
      vertex 20 36 56
      vertex 23 36 56
    endloop
  endfacet
  facet normal 0 1 0
    outer loop
      vertex 20 36 3
      vertex 23 36 56
      vertex 23 36 3
    endloop
  endfacet
  facet normal 0 0 -1
    outer loop
      vertex 16 -36 6
      vertex 24 -31 6
      vertex 24 -36 6
    endloop
  endfacet
  facet normal 0 0 -1
    outer loop
      vertex 16 -36 6
      vertex 16 -31 6
      vertex 24 -31 6
    endloop
  endfacet
  facet normal 0 0 1
    outer loop
      vertex 16 -36 54
      vertex 24 -36 54
      vertex 24 -31 54
    endloop
  endfacet
  facet normal 0 0 1
    outer loop
      vertex 16 -36 54
      vertex 24 -31 54
      vertex 16 -31 54
    endloop
  endfacet
  facet normal -1 0 0
    outer loop
      vertex 16 -36 6
      vertex 16 -36 54
      vertex 16 -31 54
    endloop
  endfacet
  facet normal -1 0 0
    outer loop
      vertex 16 -36 6
      vertex 16 -31 54
      vertex 16 -31 6
    endloop
  endfacet
  facet normal 1 0 0
    outer loop
      vertex 24 -36 6
      vertex 24 -31 6
      vertex 24 -31 54
    endloop
  endfacet
  facet normal 1 0 0
    outer loop
      vertex 24 -36 6
      vertex 24 -31 54
      vertex 24 -36 54
    endloop
  endfacet
  facet normal 0 -1 0
    outer loop
      vertex 16 -36 6
      vertex 24 -36 6
      vertex 24 -36 54
    endloop
  endfacet
  facet normal 0 -1 0
    outer loop
      vertex 16 -36 6
      vertex 24 -36 54
      vertex 16 -36 54
    endloop
  endfacet
  facet normal 0 1 0
    outer loop
      vertex 16 -31 6
      vertex 16 -31 54
      vertex 24 -31 54
    endloop
  endfacet
  facet normal 0 1 0
    outer loop
      vertex 16 -31 6
      vertex 24 -31 54
      vertex 24 -31 6
    endloop
  endfacet
  facet normal 0 0 -1
    outer loop
      vertex 16 31 6
      vertex 24 36 6
      vertex 24 31 6
    endloop
  endfacet
  facet normal 0 0 -1
    outer loop
      vertex 16 31 6
      vertex 16 36 6
      vertex 24 36 6
    endloop
  endfacet
  facet normal 0 0 1
    outer loop
      vertex 16 31 54
      vertex 24 31 54
      vertex 24 36 54
    endloop
  endfacet
  facet normal 0 0 1
    outer loop
      vertex 16 31 54
      vertex 24 36 54
      vertex 16 36 54
    endloop
  endfacet
  facet normal -1 0 0
    outer loop
      vertex 16 31 6
      vertex 16 31 54
      vertex 16 36 54
    endloop
  endfacet
  facet normal -1 0 0
    outer loop
      vertex 16 31 6
      vertex 16 36 54
      vertex 16 36 6
    endloop
  endfacet
  facet normal 1 0 0
    outer loop
      vertex 24 31 6
      vertex 24 36 6
      vertex 24 36 54
    endloop
  endfacet
  facet normal 1 0 0
    outer loop
      vertex 24 31 6
      vertex 24 36 54
      vertex 24 31 54
    endloop
  endfacet
  facet normal 0 -1 0
    outer loop
      vertex 16 31 6
      vertex 24 31 6
      vertex 24 31 54
    endloop
  endfacet
  facet normal 0 -1 0
    outer loop
      vertex 16 31 6
      vertex 24 31 54
      vertex 16 31 54
    endloop
  endfacet
  facet normal 0 1 0
    outer loop
      vertex 16 36 6
      vertex 16 36 54
      vertex 24 36 54
    endloop
  endfacet
  facet normal 0 1 0
    outer loop
      vertex 16 36 6
      vertex 24 36 54
      vertex 24 36 6
    endloop
  endfacet
  facet normal 0 0 -1
    outer loop
      vertex 16 -36 50
      vertex 24 36 50
      vertex 24 -36 50
    endloop
  endfacet
  facet normal 0 0 -1
    outer loop
      vertex 16 -36 50
      vertex 16 36 50
      vertex 24 36 50
    endloop
  endfacet
  facet normal 0 0 1
    outer loop
      vertex 16 -36 56
      vertex 24 -36 56
      vertex 24 36 56
    endloop
  endfacet
  facet normal 0 0 1
    outer loop
      vertex 16 -36 56
      vertex 24 36 56
      vertex 16 36 56
    endloop
  endfacet
  facet normal -1 0 0
    outer loop
      vertex 16 -36 50
      vertex 16 -36 56
      vertex 16 36 56
    endloop
  endfacet
  facet normal -1 0 0
    outer loop
      vertex 16 -36 50
      vertex 16 36 56
      vertex 16 36 50
    endloop
  endfacet
  facet normal 1 0 0
    outer loop
      vertex 24 -36 50
      vertex 24 36 50
      vertex 24 36 56
    endloop
  endfacet
  facet normal 1 0 0
    outer loop
      vertex 24 -36 50
      vertex 24 36 56
      vertex 24 -36 56
    endloop
  endfacet
  facet normal 0 -1 0
    outer loop
      vertex 16 -36 50
      vertex 24 -36 50
      vertex 24 -36 56
    endloop
  endfacet
  facet normal 0 -1 0
    outer loop
      vertex 16 -36 50
      vertex 24 -36 56
      vertex 16 -36 56
    endloop
  endfacet
  facet normal 0 1 0
    outer loop
      vertex 16 36 50
      vertex 16 36 56
      vertex 24 36 56
    endloop
  endfacet
  facet normal 0 1 0
    outer loop
      vertex 16 36 50
      vertex 24 36 56
      vertex 24 36 50
    endloop
  endfacet
  facet normal 0 0 -1
    outer loop
      vertex 16 -36 3
      vertex 24 -10 3
      vertex 24 -36 3
    endloop
  endfacet
  facet normal 0 0 -1
    outer loop
      vertex 16 -36 3
      vertex 16 -10 3
      vertex 24 -10 3
    endloop
  endfacet
  facet normal 0 0 1
    outer loop
      vertex 16 -36 10
      vertex 24 -36 10
      vertex 24 -10 10
    endloop
  endfacet
  facet normal 0 0 1
    outer loop
      vertex 16 -36 10
      vertex 24 -10 10
      vertex 16 -10 10
    endloop
  endfacet
  facet normal -1 0 0
    outer loop
      vertex 16 -36 3
      vertex 16 -36 10
      vertex 16 -10 10
    endloop
  endfacet
  facet normal -1 0 0
    outer loop
      vertex 16 -36 3
      vertex 16 -10 10
      vertex 16 -10 3
    endloop
  endfacet
  facet normal 1 0 0
    outer loop
      vertex 24 -36 3
      vertex 24 -10 3
      vertex 24 -10 10
    endloop
  endfacet
  facet normal 1 0 0
    outer loop
      vertex 24 -36 3
      vertex 24 -10 10
      vertex 24 -36 10
    endloop
  endfacet
  facet normal 0 -1 0
    outer loop
      vertex 16 -36 3
      vertex 24 -36 3
      vertex 24 -36 10
    endloop
  endfacet
  facet normal 0 -1 0
    outer loop
      vertex 16 -36 3
      vertex 24 -36 10
      vertex 16 -36 10
    endloop
  endfacet
  facet normal 0 1 0
    outer loop
      vertex 16 -10 3
      vertex 16 -10 10
      vertex 24 -10 10
    endloop
  endfacet
  facet normal 0 1 0
    outer loop
      vertex 16 -10 3
      vertex 24 -10 10
      vertex 24 -10 3
    endloop
  endfacet
  facet normal 0 0 -1
    outer loop
      vertex 16 10 3
      vertex 24 36 3
      vertex 24 10 3
    endloop
  endfacet
  facet normal 0 0 -1
    outer loop
      vertex 16 10 3
      vertex 16 36 3
      vertex 24 36 3
    endloop
  endfacet
  facet normal 0 0 1
    outer loop
      vertex 16 10 10
      vertex 24 10 10
      vertex 24 36 10
    endloop
  endfacet
  facet normal 0 0 1
    outer loop
      vertex 16 10 10
      vertex 24 36 10
      vertex 16 36 10
    endloop
  endfacet
  facet normal -1 0 0
    outer loop
      vertex 16 10 3
      vertex 16 10 10
      vertex 16 36 10
    endloop
  endfacet
  facet normal -1 0 0
    outer loop
      vertex 16 10 3
      vertex 16 36 10
      vertex 16 36 3
    endloop
  endfacet
  facet normal 1 0 0
    outer loop
      vertex 24 10 3
      vertex 24 36 3
      vertex 24 36 10
    endloop
  endfacet
  facet normal 1 0 0
    outer loop
      vertex 24 10 3
      vertex 24 36 10
      vertex 24 10 10
    endloop
  endfacet
  facet normal 0 -1 0
    outer loop
      vertex 16 10 3
      vertex 24 10 3
      vertex 24 10 10
    endloop
  endfacet
  facet normal 0 -1 0
    outer loop
      vertex 16 10 3
      vertex 24 10 10
      vertex 16 10 10
    endloop
  endfacet
  facet normal 0 1 0
    outer loop
      vertex 16 36 3
      vertex 16 36 10
      vertex 24 36 10
    endloop
  endfacet
  facet normal 0 1 0
    outer loop
      vertex 16 36 3
      vertex 24 36 10
      vertex 24 36 3
    endloop
  endfacet
  facet normal 0 0 -1
    outer loop
      vertex 3 -34 3
      vertex 20 -29 3
      vertex 20 -34 3
    endloop
  endfacet
  facet normal 0 0 -1
    outer loop
      vertex 3 -34 3
      vertex 3 -29 3
      vertex 20 -29 3
    endloop
  endfacet
  facet normal 0 0 1
    outer loop
      vertex 3 -34 28
      vertex 20 -34 28
      vertex 20 -29 28
    endloop
  endfacet
  facet normal 0 0 1
    outer loop
      vertex 3 -34 28
      vertex 20 -29 28
      vertex 3 -29 28
    endloop
  endfacet
  facet normal -1 0 0
    outer loop
      vertex 3 -34 3
      vertex 3 -34 28
      vertex 3 -29 28
    endloop
  endfacet
  facet normal -1 0 0
    outer loop
      vertex 3 -34 3
      vertex 3 -29 28
      vertex 3 -29 3
    endloop
  endfacet
  facet normal 1 0 0
    outer loop
      vertex 20 -34 3
      vertex 20 -29 3
      vertex 20 -29 28
    endloop
  endfacet
  facet normal 1 0 0
    outer loop
      vertex 20 -34 3
      vertex 20 -29 28
      vertex 20 -34 28
    endloop
  endfacet
  facet normal 0 -1 0
    outer loop
      vertex 3 -34 3
      vertex 20 -34 3
      vertex 20 -34 28
    endloop
  endfacet
  facet normal 0 -1 0
    outer loop
      vertex 3 -34 3
      vertex 20 -34 28
      vertex 3 -34 28
    endloop
  endfacet
  facet normal 0 1 0
    outer loop
      vertex 3 -29 3
      vertex 3 -29 28
      vertex 20 -29 28
    endloop
  endfacet
  facet normal 0 1 0
    outer loop
      vertex 3 -29 3
      vertex 20 -29 28
      vertex 20 -29 3
    endloop
  endfacet
  facet normal 0 0 -1
    outer loop
      vertex 3 29 3
      vertex 20 34 3
      vertex 20 29 3
    endloop
  endfacet
  facet normal 0 0 -1
    outer loop
      vertex 3 29 3
      vertex 3 34 3
      vertex 20 34 3
    endloop
  endfacet
  facet normal 0 0 1
    outer loop
      vertex 3 29 28
      vertex 20 29 28
      vertex 20 34 28
    endloop
  endfacet
  facet normal 0 0 1
    outer loop
      vertex 3 29 28
      vertex 20 34 28
      vertex 3 34 28
    endloop
  endfacet
  facet normal -1 0 0
    outer loop
      vertex 3 29 3
      vertex 3 29 28
      vertex 3 34 28
    endloop
  endfacet
  facet normal -1 0 0
    outer loop
      vertex 3 29 3
      vertex 3 34 28
      vertex 3 34 3
    endloop
  endfacet
  facet normal 1 0 0
    outer loop
      vertex 20 29 3
      vertex 20 34 3
      vertex 20 34 28
    endloop
  endfacet
  facet normal 1 0 0
    outer loop
      vertex 20 29 3
      vertex 20 34 28
      vertex 20 29 28
    endloop
  endfacet
  facet normal 0 -1 0
    outer loop
      vertex 3 29 3
      vertex 20 29 3
      vertex 20 29 28
    endloop
  endfacet
  facet normal 0 -1 0
    outer loop
      vertex 3 29 3
      vertex 20 29 28
      vertex 3 29 28
    endloop
  endfacet
  facet normal 0 1 0
    outer loop
      vertex 3 34 3
      vertex 3 34 28
      vertex 20 34 28
    endloop
  endfacet
  facet normal 0 1 0
    outer loop
      vertex 3 34 3
      vertex 20 34 28
      vertex 20 34 3
    endloop
  endfacet
endsolid cleo_rover_display_roof_turret_v1
