solid cleo_rover_display_roof_turret_v1
  facet normal 0 0 -1
    outer loop
      vertex 0 -42 0
      vertex 46 42 0
      vertex 46 -42 0
    endloop
  endfacet
  facet normal 0 0 -1
    outer loop
      vertex 0 -42 0
      vertex 0 42 0
      vertex 46 42 0
    endloop
  endfacet
  facet normal 0 0 1
    outer loop
      vertex 0 -42 3.2
      vertex 46 -42 3.2
      vertex 46 42 3.2
    endloop
  endfacet
  facet normal 0 0 1
    outer loop
      vertex 0 -42 3.2
      vertex 46 42 3.2
      vertex 0 42 3.2
    endloop
  endfacet
  facet normal -1 0 0
    outer loop
      vertex 0 -42 0
      vertex 0 -42 3.2
      vertex 0 42 3.2
    endloop
  endfacet
  facet normal -1 0 0
    outer loop
      vertex 0 -42 0
      vertex 0 42 3.2
      vertex 0 42 0
    endloop
  endfacet
  facet normal 1 0 0
    outer loop
      vertex 46 -42 0
      vertex 46 42 0
      vertex 46 42 3.2
    endloop
  endfacet
  facet normal 1 0 0
    outer loop
      vertex 46 -42 0
      vertex 46 42 3.2
      vertex 46 -42 3.2
    endloop
  endfacet
  facet normal 0 -1 0
    outer loop
      vertex 0 -42 0
      vertex 46 -42 0
      vertex 46 -42 3.2
    endloop
  endfacet
  facet normal 0 -1 0
    outer loop
      vertex 0 -42 0
      vertex 46 -42 3.2
      vertex 0 -42 3.2
    endloop
  endfacet
  facet normal 0 1 0
    outer loop
      vertex 0 42 0
      vertex 0 42 3.2
      vertex 46 42 3.2
    endloop
  endfacet
  facet normal 0 1 0
    outer loop
      vertex 0 42 0
      vertex 46 42 3.2
      vertex 46 42 0
    endloop
  endfacet
  facet normal 0 0 -1
    outer loop
      vertex 23 -39 3.2
      vertex 26 39 3.2
      vertex 26 -39 3.2
    endloop
  endfacet
  facet normal 0 0 -1
    outer loop
      vertex 23 -39 3.2
      vertex 23 39 3.2
      vertex 26 39 3.2
    endloop
  endfacet
  facet normal 0 0 1
    outer loop
      vertex 23 -39 64
      vertex 26 -39 64
      vertex 26 39 64
    endloop
  endfacet
  facet normal 0 0 1
    outer loop
      vertex 23 -39 64
      vertex 26 39 64
      vertex 23 39 64
    endloop
  endfacet
  facet normal -1 0 0
    outer loop
      vertex 23 -39 3.2
      vertex 23 -39 64
      vertex 23 39 64
    endloop
  endfacet
  facet normal -1 0 0
    outer loop
      vertex 23 -39 3.2
      vertex 23 39 64
      vertex 23 39 3.2
    endloop
  endfacet
  facet normal 1 0 0
    outer loop
      vertex 26 -39 3.2
      vertex 26 39 3.2
      vertex 26 39 64
    endloop
  endfacet
  facet normal 1 0 0
    outer loop
      vertex 26 -39 3.2
      vertex 26 39 64
      vertex 26 -39 64
    endloop
  endfacet
  facet normal 0 -1 0
    outer loop
      vertex 23 -39 3.2
      vertex 26 -39 3.2
      vertex 26 -39 64
    endloop
  endfacet
  facet normal 0 -1 0
    outer loop
      vertex 23 -39 3.2
      vertex 26 -39 64
      vertex 23 -39 64
    endloop
  endfacet
  facet normal 0 1 0
    outer loop
      vertex 23 39 3.2
      vertex 23 39 64
      vertex 26 39 64
    endloop
  endfacet
  facet normal 0 1 0
    outer loop
      vertex 23 39 3.2
      vertex 26 39 64
      vertex 26 39 3.2
    endloop
  endfacet
  facet normal 0 0 -1
    outer loop
      vertex 4 -39 6
      vertex 26 -32 6
      vertex 26 -39 6
    endloop
  endfacet
  facet normal 0 0 -1
    outer loop
      vertex 4 -39 6
      vertex 4 -32 6
      vertex 26 -32 6
    endloop
  endfacet
  facet normal 0 0 1
    outer loop
      vertex 4 -39 61
      vertex 26 -39 61
      vertex 26 -32 61
    endloop
  endfacet
  facet normal 0 0 1
    outer loop
      vertex 4 -39 61
      vertex 26 -32 61
      vertex 4 -32 61
    endloop
  endfacet
  facet normal -1 0 0
    outer loop
      vertex 4 -39 6
      vertex 4 -39 61
      vertex 4 -32 61
    endloop
  endfacet
  facet normal -1 0 0
    outer loop
      vertex 4 -39 6
      vertex 4 -32 61
      vertex 4 -32 6
    endloop
  endfacet
  facet normal 1 0 0
    outer loop
      vertex 26 -39 6
      vertex 26 -32 6
      vertex 26 -32 61
    endloop
  endfacet
  facet normal 1 0 0
    outer loop
      vertex 26 -39 6
      vertex 26 -32 61
      vertex 26 -39 61
    endloop
  endfacet
  facet normal 0 -1 0
    outer loop
      vertex 4 -39 6
      vertex 26 -39 6
      vertex 26 -39 61
    endloop
  endfacet
  facet normal 0 -1 0
    outer loop
      vertex 4 -39 6
      vertex 26 -39 61
      vertex 4 -39 61
    endloop
  endfacet
  facet normal 0 1 0
    outer loop
      vertex 4 -32 6
      vertex 4 -32 61
      vertex 26 -32 61
    endloop
  endfacet
  facet normal 0 1 0
    outer loop
      vertex 4 -32 6
      vertex 26 -32 61
      vertex 26 -32 6
    endloop
  endfacet
  facet normal 0 0 -1
    outer loop
      vertex 4 32 6
      vertex 26 39 6
      vertex 26 32 6
    endloop
  endfacet
  facet normal 0 0 -1
    outer loop
      vertex 4 32 6
      vertex 4 39 6
      vertex 26 39 6
    endloop
  endfacet
  facet normal 0 0 1
    outer loop
      vertex 4 32 61
      vertex 26 32 61
      vertex 26 39 61
    endloop
  endfacet
  facet normal 0 0 1
    outer loop
      vertex 4 32 61
      vertex 26 39 61
      vertex 4 39 61
    endloop
  endfacet
  facet normal -1 0 0
    outer loop
      vertex 4 32 6
      vertex 4 32 61
      vertex 4 39 61
    endloop
  endfacet
  facet normal -1 0 0
    outer loop
      vertex 4 32 6
      vertex 4 39 61
      vertex 4 39 6
    endloop
  endfacet
  facet normal 1 0 0
    outer loop
      vertex 26 32 6
      vertex 26 39 6
      vertex 26 39 61
    endloop
  endfacet
  facet normal 1 0 0
    outer loop
      vertex 26 32 6
      vertex 26 39 61
      vertex 26 32 61
    endloop
  endfacet
  facet normal 0 -1 0
    outer loop
      vertex 4 32 6
      vertex 26 32 6
      vertex 26 32 61
    endloop
  endfacet
  facet normal 0 -1 0
    outer loop
      vertex 4 32 6
      vertex 26 32 61
      vertex 4 32 61
    endloop
  endfacet
  facet normal 0 1 0
    outer loop
      vertex 4 39 6
      vertex 4 39 61
      vertex 26 39 61
    endloop
  endfacet
  facet normal 0 1 0
    outer loop
      vertex 4 39 6
      vertex 26 39 61
      vertex 26 39 6
    endloop
  endfacet
  facet normal 0 0 -1
    outer loop
      vertex 4 -39 54
      vertex 26 39 54
      vertex 26 -39 54
    endloop
  endfacet
  facet normal 0 0 -1
    outer loop
      vertex 4 -39 54
      vertex 4 39 54
      vertex 26 39 54
    endloop
  endfacet
  facet normal 0 0 1
    outer loop
      vertex 4 -39 64
      vertex 26 -39 64
      vertex 26 39 64
    endloop
  endfacet
  facet normal 0 0 1
    outer loop
      vertex 4 -39 64
      vertex 26 39 64
      vertex 4 39 64
    endloop
  endfacet
  facet normal -1 0 0
    outer loop
      vertex 4 -39 54
      vertex 4 -39 64
      vertex 4 39 64
    endloop
  endfacet
  facet normal -1 0 0
    outer loop
      vertex 4 -39 54
      vertex 4 39 64
      vertex 4 39 54
    endloop
  endfacet
  facet normal 1 0 0
    outer loop
      vertex 26 -39 54
      vertex 26 39 54
      vertex 26 39 64
    endloop
  endfacet
  facet normal 1 0 0
    outer loop
      vertex 26 -39 54
      vertex 26 39 64
      vertex 26 -39 64
    endloop
  endfacet
  facet normal 0 -1 0
    outer loop
      vertex 4 -39 54
      vertex 26 -39 54
      vertex 26 -39 64
    endloop
  endfacet
  facet normal 0 -1 0
    outer loop
      vertex 4 -39 54
      vertex 26 -39 64
      vertex 4 -39 64
    endloop
  endfacet
  facet normal 0 1 0
    outer loop
      vertex 4 39 54
      vertex 4 39 64
      vertex 26 39 64
    endloop
  endfacet
  facet normal 0 1 0
    outer loop
      vertex 4 39 54
      vertex 26 39 64
      vertex 26 39 54
    endloop
  endfacet
  facet normal 0 0 -1
    outer loop
      vertex 4 -39 3.2
      vertex 26 -13 3.2
      vertex 26 -39 3.2
    endloop
  endfacet
  facet normal 0 0 -1
    outer loop
      vertex 4 -39 3.2
      vertex 4 -13 3.2
      vertex 26 -13 3.2
    endloop
  endfacet
  facet normal 0 0 1
    outer loop
      vertex 4 -39 10
      vertex 26 -39 10
      vertex 26 -13 10
    endloop
  endfacet
  facet normal 0 0 1
    outer loop
      vertex 4 -39 10
      vertex 26 -13 10
      vertex 4 -13 10
    endloop
  endfacet
  facet normal -1 0 0
    outer loop
      vertex 4 -39 3.2
      vertex 4 -39 10
      vertex 4 -13 10
    endloop
  endfacet
  facet normal -1 0 0
    outer loop
      vertex 4 -39 3.2
      vertex 4 -13 10
      vertex 4 -13 3.2
    endloop
  endfacet
  facet normal 1 0 0
    outer loop
      vertex 26 -39 3.2
      vertex 26 -13 3.2
      vertex 26 -13 10
    endloop
  endfacet
  facet normal 1 0 0
    outer loop
      vertex 26 -39 3.2
      vertex 26 -13 10
      vertex 26 -39 10
    endloop
  endfacet
  facet normal 0 -1 0
    outer loop
      vertex 4 -39 3.2
      vertex 26 -39 3.2
      vertex 26 -39 10
    endloop
  endfacet
  facet normal 0 -1 0
    outer loop
      vertex 4 -39 3.2
      vertex 26 -39 10
      vertex 4 -39 10
    endloop
  endfacet
  facet normal 0 1 0
    outer loop
      vertex 4 -13 3.2
      vertex 4 -13 10
      vertex 26 -13 10
    endloop
  endfacet
  facet normal 0 1 0
    outer loop
      vertex 4 -13 3.2
      vertex 26 -13 10
      vertex 26 -13 3.2
    endloop
  endfacet
  facet normal 0 0 -1
    outer loop
      vertex 4 13 3.2
      vertex 26 39 3.2
      vertex 26 13 3.2
    endloop
  endfacet
  facet normal 0 0 -1
    outer loop
      vertex 4 13 3.2
      vertex 4 39 3.2
      vertex 26 39 3.2
    endloop
  endfacet
  facet normal 0 0 1
    outer loop
      vertex 4 13 10
      vertex 26 13 10
      vertex 26 39 10
    endloop
  endfacet
  facet normal 0 0 1
    outer loop
      vertex 4 13 10
      vertex 26 39 10
      vertex 4 39 10
    endloop
  endfacet
  facet normal -1 0 0
    outer loop
      vertex 4 13 3.2
      vertex 4 13 10
      vertex 4 39 10
    endloop
  endfacet
  facet normal -1 0 0
    outer loop
      vertex 4 13 3.2
      vertex 4 39 10
      vertex 4 39 3.2
    endloop
  endfacet
  facet normal 1 0 0
    outer loop
      vertex 26 13 3.2
      vertex 26 39 3.2
      vertex 26 39 10
    endloop
  endfacet
  facet normal 1 0 0
    outer loop
      vertex 26 13 3.2
      vertex 26 39 10
      vertex 26 13 10
    endloop
  endfacet
  facet normal 0 -1 0
    outer loop
      vertex 4 13 3.2
      vertex 26 13 3.2
      vertex 26 13 10
    endloop
  endfacet
  facet normal 0 -1 0
    outer loop
      vertex 4 13 3.2
      vertex 26 13 10
      vertex 4 13 10
    endloop
  endfacet
  facet normal 0 1 0
    outer loop
      vertex 4 39 3.2
      vertex 4 39 10
      vertex 26 39 10
    endloop
  endfacet
  facet normal 0 1 0
    outer loop
      vertex 4 39 3.2
      vertex 26 39 10
      vertex 26 39 3.2
    endloop
  endfacet
  facet normal 0 0 -1
    outer loop
      vertex 26 -39 3.2
      vertex 36 -23 3.2
      vertex 36 -39 3.2
    endloop
  endfacet
  facet normal 0 0 -1
    outer loop
      vertex 26 -39 3.2
      vertex 26 -23 3.2
      vertex 36 -23 3.2
    endloop
  endfacet
  facet normal 0 0 1
    outer loop
      vertex 26 -39 22
      vertex 36 -39 22
      vertex 36 -23 22
    endloop
  endfacet
  facet normal 0 0 1
    outer loop
      vertex 26 -39 22
      vertex 36 -23 22
      vertex 26 -23 22
    endloop
  endfacet
  facet normal -1 0 0
    outer loop
      vertex 26 -39 3.2
      vertex 26 -39 22
      vertex 26 -23 22
    endloop
  endfacet
  facet normal -1 0 0
    outer loop
      vertex 26 -39 3.2
      vertex 26 -23 22
      vertex 26 -23 3.2
    endloop
  endfacet
  facet normal 1 0 0
    outer loop
      vertex 36 -39 3.2
      vertex 36 -23 3.2
      vertex 36 -23 22
    endloop
  endfacet
  facet normal 1 0 0
    outer loop
      vertex 36 -39 3.2
      vertex 36 -23 22
      vertex 36 -39 22
    endloop
  endfacet
  facet normal 0 -1 0
    outer loop
      vertex 26 -39 3.2
      vertex 36 -39 3.2
      vertex 36 -39 22
    endloop
  endfacet
  facet normal 0 -1 0
    outer loop
      vertex 26 -39 3.2
      vertex 36 -39 22
      vertex 26 -39 22
    endloop
  endfacet
  facet normal 0 1 0
    outer loop
      vertex 26 -23 3.2
      vertex 26 -23 22
      vertex 36 -23 22
    endloop
  endfacet
  facet normal 0 1 0
    outer loop
      vertex 26 -23 3.2
      vertex 36 -23 22
      vertex 36 -23 3.2
    endloop
  endfacet
  facet normal 0 0 -1
    outer loop
      vertex 26 23 3.2
      vertex 36 39 3.2
      vertex 36 23 3.2
    endloop
  endfacet
  facet normal 0 0 -1
    outer loop
      vertex 26 23 3.2
      vertex 26 39 3.2
      vertex 36 39 3.2
    endloop
  endfacet
  facet normal 0 0 1
    outer loop
      vertex 26 23 22
      vertex 36 23 22
      vertex 36 39 22
    endloop
  endfacet
  facet normal 0 0 1
    outer loop
      vertex 26 23 22
      vertex 36 39 22
      vertex 26 39 22
    endloop
  endfacet
  facet normal -1 0 0
    outer loop
      vertex 26 23 3.2
      vertex 26 23 22
      vertex 26 39 22
    endloop
  endfacet
  facet normal -1 0 0
    outer loop
      vertex 26 23 3.2
      vertex 26 39 22
      vertex 26 39 3.2
    endloop
  endfacet
  facet normal 1 0 0
    outer loop
      vertex 36 23 3.2
      vertex 36 39 3.2
      vertex 36 39 22
    endloop
  endfacet
  facet normal 1 0 0
    outer loop
      vertex 36 23 3.2
      vertex 36 39 22
      vertex 36 23 22
    endloop
  endfacet
  facet normal 0 -1 0
    outer loop
      vertex 26 23 3.2
      vertex 36 23 3.2
      vertex 36 23 22
    endloop
  endfacet
  facet normal 0 -1 0
    outer loop
      vertex 26 23 3.2
      vertex 36 23 22
      vertex 26 23 22
    endloop
  endfacet
  facet normal 0 1 0
    outer loop
      vertex 26 39 3.2
      vertex 26 39 22
      vertex 36 39 22
    endloop
  endfacet
  facet normal 0 1 0
    outer loop
      vertex 26 39 3.2
      vertex 36 39 22
      vertex 36 39 3.2
    endloop
  endfacet
  facet normal 0 0 -1
    outer loop
      vertex 4 -38 3.2
      vertex 23 -32 3.2
      vertex 23 -38 3.2
    endloop
  endfacet
  facet normal 0 0 -1
    outer loop
      vertex 4 -38 3.2
      vertex 4 -32 3.2
      vertex 23 -32 3.2
    endloop
  endfacet
  facet normal 0 0 1
    outer loop
      vertex 4 -38 32
      vertex 23 -38 32
      vertex 23 -32 32
    endloop
  endfacet
  facet normal 0 0 1
    outer loop
      vertex 4 -38 32
      vertex 23 -32 32
      vertex 4 -32 32
    endloop
  endfacet
  facet normal -1 0 0
    outer loop
      vertex 4 -38 3.2
      vertex 4 -38 32
      vertex 4 -32 32
    endloop
  endfacet
  facet normal -1 0 0
    outer loop
      vertex 4 -38 3.2
      vertex 4 -32 32
      vertex 4 -32 3.2
    endloop
  endfacet
  facet normal 1 0 0
    outer loop
      vertex 23 -38 3.2
      vertex 23 -32 3.2
      vertex 23 -32 32
    endloop
  endfacet
  facet normal 1 0 0
    outer loop
      vertex 23 -38 3.2
      vertex 23 -32 32
      vertex 23 -38 32
    endloop
  endfacet
  facet normal 0 -1 0
    outer loop
      vertex 4 -38 3.2
      vertex 23 -38 3.2
      vertex 23 -38 32
    endloop
  endfacet
  facet normal 0 -1 0
    outer loop
      vertex 4 -38 3.2
      vertex 23 -38 32
      vertex 4 -38 32
    endloop
  endfacet
  facet normal 0 1 0
    outer loop
      vertex 4 -32 3.2
      vertex 4 -32 32
      vertex 23 -32 32
    endloop
  endfacet
  facet normal 0 1 0
    outer loop
      vertex 4 -32 3.2
      vertex 23 -32 32
      vertex 23 -32 3.2
    endloop
  endfacet
  facet normal 0 0 -1
    outer loop
      vertex 4 32 3.2
      vertex 23 38 3.2
      vertex 23 32 3.2
    endloop
  endfacet
  facet normal 0 0 -1
    outer loop
      vertex 4 32 3.2
      vertex 4 38 3.2
      vertex 23 38 3.2
    endloop
  endfacet
  facet normal 0 0 1
    outer loop
      vertex 4 32 32
      vertex 23 32 32
      vertex 23 38 32
    endloop
  endfacet
  facet normal 0 0 1
    outer loop
      vertex 4 32 32
      vertex 23 38 32
      vertex 4 38 32
    endloop
  endfacet
  facet normal -1 0 0
    outer loop
      vertex 4 32 3.2
      vertex 4 32 32
      vertex 4 38 32
    endloop
  endfacet
  facet normal -1 0 0
    outer loop
      vertex 4 32 3.2
      vertex 4 38 32
      vertex 4 38 3.2
    endloop
  endfacet
  facet normal 1 0 0
    outer loop
      vertex 23 32 3.2
      vertex 23 38 3.2
      vertex 23 38 32
    endloop
  endfacet
  facet normal 1 0 0
    outer loop
      vertex 23 32 3.2
      vertex 23 38 32
      vertex 23 32 32
    endloop
  endfacet
  facet normal 0 -1 0
    outer loop
      vertex 4 32 3.2
      vertex 23 32 3.2
      vertex 23 32 32
    endloop
  endfacet
  facet normal 0 -1 0
    outer loop
      vertex 4 32 3.2
      vertex 23 32 32
      vertex 4 32 32
    endloop
  endfacet
  facet normal 0 1 0
    outer loop
      vertex 4 38 3.2
      vertex 4 38 32
      vertex 23 38 32
    endloop
  endfacet
  facet normal 0 1 0
    outer loop
      vertex 4 38 3.2
      vertex 23 38 32
      vertex 23 38 3.2
    endloop
  endfacet
  facet normal 0 0 -1
    outer loop
      vertex 0 -18 3.2
      vertex 6 18 3.2
      vertex 6 -18 3.2
    endloop
  endfacet
  facet normal 0 0 -1
    outer loop
      vertex 0 -18 3.2
      vertex 0 18 3.2
      vertex 6 18 3.2
    endloop
  endfacet
  facet normal 0 0 1
    outer loop
      vertex 0 -18 7
      vertex 6 -18 7
      vertex 6 18 7
    endloop
  endfacet
  facet normal 0 0 1
    outer loop
      vertex 0 -18 7
      vertex 6 18 7
      vertex 0 18 7
    endloop
  endfacet
  facet normal -1 0 0
    outer loop
      vertex 0 -18 3.2
      vertex 0 -18 7
      vertex 0 18 7
    endloop
  endfacet
  facet normal -1 0 0
    outer loop
      vertex 0 -18 3.2
      vertex 0 18 7
      vertex 0 18 3.2
    endloop
  endfacet
  facet normal 1 0 0
    outer loop
      vertex 6 -18 3.2
      vertex 6 18 3.2
      vertex 6 18 7
    endloop
  endfacet
  facet normal 1 0 0
    outer loop
      vertex 6 -18 3.2
      vertex 6 18 7
      vertex 6 -18 7
    endloop
  endfacet
  facet normal 0 -1 0
    outer loop
      vertex 0 -18 3.2
      vertex 6 -18 3.2
      vertex 6 -18 7
    endloop
  endfacet
  facet normal 0 -1 0
    outer loop
      vertex 0 -18 3.2
      vertex 6 -18 7
      vertex 0 -18 7
    endloop
  endfacet
  facet normal 0 1 0
    outer loop
      vertex 0 18 3.2
      vertex 0 18 7
      vertex 6 18 7
    endloop
  endfacet
  facet normal 0 1 0
    outer loop
      vertex 0 18 3.2
      vertex 6 18 7
      vertex 6 18 3.2
    endloop
  endfacet
endsolid cleo_rover_display_roof_turret_v1
