solid pip_shell_v6_front_open_top_body
  facet normal 0 0 -1
    outer loop
      vertex 12 -55 0
      vertex 88 -52.2 0
      vertex 88 -55 0
    endloop
  endfacet
  facet normal 0 0 -1
    outer loop
      vertex 12 -55 0
      vertex 12 -52.2 0
      vertex 88 -52.2 0
    endloop
  endfacet
  facet normal 0 0 1
    outer loop
      vertex 12 -55 8
      vertex 88 -55 8
      vertex 88 -52.2 8
    endloop
  endfacet
  facet normal 0 0 1
    outer loop
      vertex 12 -55 8
      vertex 88 -52.2 8
      vertex 12 -52.2 8
    endloop
  endfacet
  facet normal -1 0 0
    outer loop
      vertex 12 -55 0
      vertex 12 -55 8
      vertex 12 -52.2 8
    endloop
  endfacet
  facet normal -1 0 0
    outer loop
      vertex 12 -55 0
      vertex 12 -52.2 8
      vertex 12 -52.2 0
    endloop
  endfacet
  facet normal 1 0 0
    outer loop
      vertex 88 -55 0
      vertex 88 -52.2 0
      vertex 88 -52.2 8
    endloop
  endfacet
  facet normal 1 0 0
    outer loop
      vertex 88 -55 0
      vertex 88 -52.2 8
      vertex 88 -55 8
    endloop
  endfacet
  facet normal 0 -1 0
    outer loop
      vertex 12 -55 0
      vertex 88 -55 0
      vertex 88 -55 8
    endloop
  endfacet
  facet normal 0 -1 0
    outer loop
      vertex 12 -55 0
      vertex 88 -55 8
      vertex 12 -55 8
    endloop
  endfacet
  facet normal 0 1 0
    outer loop
      vertex 12 -52.2 0
      vertex 12 -52.2 8
      vertex 88 -52.2 8
    endloop
  endfacet
  facet normal 0 1 0
    outer loop
      vertex 12 -52.2 0
      vertex 88 -52.2 8
      vertex 88 -52.2 0
    endloop
  endfacet
  facet normal 0 0 -1
    outer loop
      vertex 12 -55 28
      vertex 88 -52.2 28
      vertex 88 -55 28
    endloop
  endfacet
  facet normal 0 0 -1
    outer loop
      vertex 12 -55 28
      vertex 12 -52.2 28
      vertex 88 -52.2 28
    endloop
  endfacet
  facet normal 0 0 1
    outer loop
      vertex 12 -55 32
      vertex 88 -55 32
      vertex 88 -52.2 32
    endloop
  endfacet
  facet normal 0 0 1
    outer loop
      vertex 12 -55 32
      vertex 88 -52.2 32
      vertex 12 -52.2 32
    endloop
  endfacet
  facet normal -1 0 0
    outer loop
      vertex 12 -55 28
      vertex 12 -55 32
      vertex 12 -52.2 32
    endloop
  endfacet
  facet normal -1 0 0
    outer loop
      vertex 12 -55 28
      vertex 12 -52.2 32
      vertex 12 -52.2 28
    endloop
  endfacet
  facet normal 1 0 0
    outer loop
      vertex 88 -55 28
      vertex 88 -52.2 28
      vertex 88 -52.2 32
    endloop
  endfacet
  facet normal 1 0 0
    outer loop
      vertex 88 -55 28
      vertex 88 -52.2 32
      vertex 88 -55 32
    endloop
  endfacet
  facet normal 0 -1 0
    outer loop
      vertex 12 -55 28
      vertex 88 -55 28
      vertex 88 -55 32
    endloop
  endfacet
  facet normal 0 -1 0
    outer loop
      vertex 12 -55 28
      vertex 88 -55 32
      vertex 12 -55 32
    endloop
  endfacet
  facet normal 0 1 0
    outer loop
      vertex 12 -52.2 28
      vertex 12 -52.2 32
      vertex 88 -52.2 32
    endloop
  endfacet
  facet normal 0 1 0
    outer loop
      vertex 12 -52.2 28
      vertex 88 -52.2 32
      vertex 88 -52.2 28
    endloop
  endfacet
  facet normal 0 0 -1
    outer loop
      vertex 12 -55 11
      vertex 14.2 -52.2 11
      vertex 14.2 -55 11
    endloop
  endfacet
  facet normal 0 0 -1
    outer loop
      vertex 12 -55 11
      vertex 12 -52.2 11
      vertex 14.2 -52.2 11
    endloop
  endfacet
  facet normal 0 0 1
    outer loop
      vertex 12 -55 28
      vertex 14.2 -55 28
      vertex 14.2 -52.2 28
    endloop
  endfacet
  facet normal 0 0 1
    outer loop
      vertex 12 -55 28
      vertex 14.2 -52.2 28
      vertex 12 -52.2 28
    endloop
  endfacet
  facet normal -1 0 0
    outer loop
      vertex 12 -55 11
      vertex 12 -55 28
      vertex 12 -52.2 28
    endloop
  endfacet
  facet normal -1 0 0
    outer loop
      vertex 12 -55 11
      vertex 12 -52.2 28
      vertex 12 -52.2 11
    endloop
  endfacet
  facet normal 1 0 0
    outer loop
      vertex 14.2 -55 11
      vertex 14.2 -52.2 11
      vertex 14.2 -52.2 28
    endloop
  endfacet
  facet normal 1 0 0
    outer loop
      vertex 14.2 -55 11
      vertex 14.2 -52.2 28
      vertex 14.2 -55 28
    endloop
  endfacet
  facet normal 0 -1 0
    outer loop
      vertex 12 -55 11
      vertex 14.2 -55 11
      vertex 14.2 -55 28
    endloop
  endfacet
  facet normal 0 -1 0
    outer loop
      vertex 12 -55 11
      vertex 14.2 -55 28
      vertex 12 -55 28
    endloop
  endfacet
  facet normal 0 1 0
    outer loop
      vertex 12 -52.2 11
      vertex 12 -52.2 28
      vertex 14.2 -52.2 28
    endloop
  endfacet
  facet normal 0 1 0
    outer loop
      vertex 12 -52.2 11
      vertex 14.2 -52.2 28
      vertex 14.2 -52.2 11
    endloop
  endfacet
  facet normal 0 0 -1
    outer loop
      vertex 19 -55 11
      vertex 21.2 -52.2 11
      vertex 21.2 -55 11
    endloop
  endfacet
  facet normal 0 0 -1
    outer loop
      vertex 19 -55 11
      vertex 19 -52.2 11
      vertex 21.2 -52.2 11
    endloop
  endfacet
  facet normal 0 0 1
    outer loop
      vertex 19 -55 28
      vertex 21.2 -55 28
      vertex 21.2 -52.2 28
    endloop
  endfacet
  facet normal 0 0 1
    outer loop
      vertex 19 -55 28
      vertex 21.2 -52.2 28
      vertex 19 -52.2 28
    endloop
  endfacet
  facet normal -1 0 0
    outer loop
      vertex 19 -55 11
      vertex 19 -55 28
      vertex 19 -52.2 28
    endloop
  endfacet
  facet normal -1 0 0
    outer loop
      vertex 19 -55 11
      vertex 19 -52.2 28
      vertex 19 -52.2 11
    endloop
  endfacet
  facet normal 1 0 0
    outer loop
      vertex 21.2 -55 11
      vertex 21.2 -52.2 11
      vertex 21.2 -52.2 28
    endloop
  endfacet
  facet normal 1 0 0
    outer loop
      vertex 21.2 -55 11
      vertex 21.2 -52.2 28
      vertex 21.2 -55 28
    endloop
  endfacet
  facet normal 0 -1 0
    outer loop
      vertex 19 -55 11
      vertex 21.2 -55 11
      vertex 21.2 -55 28
    endloop
  endfacet
  facet normal 0 -1 0
    outer loop
      vertex 19 -55 11
      vertex 21.2 -55 28
      vertex 19 -55 28
    endloop
  endfacet
  facet normal 0 1 0
    outer loop
      vertex 19 -52.2 11
      vertex 19 -52.2 28
      vertex 21.2 -52.2 28
    endloop
  endfacet
  facet normal 0 1 0
    outer loop
      vertex 19 -52.2 11
      vertex 21.2 -52.2 28
      vertex 21.2 -52.2 11
    endloop
  endfacet
  facet normal 0 0 -1
    outer loop
      vertex 26 -55 11
      vertex 28.2 -52.2 11
      vertex 28.2 -55 11
    endloop
  endfacet
  facet normal 0 0 -1
    outer loop
      vertex 26 -55 11
      vertex 26 -52.2 11
      vertex 28.2 -52.2 11
    endloop
  endfacet
  facet normal 0 0 1
    outer loop
      vertex 26 -55 28
      vertex 28.2 -55 28
      vertex 28.2 -52.2 28
    endloop
  endfacet
  facet normal 0 0 1
    outer loop
      vertex 26 -55 28
      vertex 28.2 -52.2 28
      vertex 26 -52.2 28
    endloop
  endfacet
  facet normal -1 0 0
    outer loop
      vertex 26 -55 11
      vertex 26 -55 28
      vertex 26 -52.2 28
    endloop
  endfacet
  facet normal -1 0 0
    outer loop
      vertex 26 -55 11
      vertex 26 -52.2 28
      vertex 26 -52.2 11
    endloop
  endfacet
  facet normal 1 0 0
    outer loop
      vertex 28.2 -55 11
      vertex 28.2 -52.2 11
      vertex 28.2 -52.2 28
    endloop
  endfacet
  facet normal 1 0 0
    outer loop
      vertex 28.2 -55 11
      vertex 28.2 -52.2 28
      vertex 28.2 -55 28
    endloop
  endfacet
  facet normal 0 -1 0
    outer loop
      vertex 26 -55 11
      vertex 28.2 -55 11
      vertex 28.2 -55 28
    endloop
  endfacet
  facet normal 0 -1 0
    outer loop
      vertex 26 -55 11
      vertex 28.2 -55 28
      vertex 26 -55 28
    endloop
  endfacet
  facet normal 0 1 0
    outer loop
      vertex 26 -52.2 11
      vertex 26 -52.2 28
      vertex 28.2 -52.2 28
    endloop
  endfacet
  facet normal 0 1 0
    outer loop
      vertex 26 -52.2 11
      vertex 28.2 -52.2 28
      vertex 28.2 -52.2 11
    endloop
  endfacet
  facet normal 0 0 -1
    outer loop
      vertex 33 -55 11
      vertex 35.2 -52.2 11
      vertex 35.2 -55 11
    endloop
  endfacet
  facet normal 0 0 -1
    outer loop
      vertex 33 -55 11
      vertex 33 -52.2 11
      vertex 35.2 -52.2 11
    endloop
  endfacet
  facet normal 0 0 1
    outer loop
      vertex 33 -55 28
      vertex 35.2 -55 28
      vertex 35.2 -52.2 28
    endloop
  endfacet
  facet normal 0 0 1
    outer loop
      vertex 33 -55 28
      vertex 35.2 -52.2 28
      vertex 33 -52.2 28
    endloop
  endfacet
  facet normal -1 0 0
    outer loop
      vertex 33 -55 11
      vertex 33 -55 28
      vertex 33 -52.2 28
    endloop
  endfacet
  facet normal -1 0 0
    outer loop
      vertex 33 -55 11
      vertex 33 -52.2 28
      vertex 33 -52.2 11
    endloop
  endfacet
  facet normal 1 0 0
    outer loop
      vertex 35.2 -55 11
      vertex 35.2 -52.2 11
      vertex 35.2 -52.2 28
    endloop
  endfacet
  facet normal 1 0 0
    outer loop
      vertex 35.2 -55 11
      vertex 35.2 -52.2 28
      vertex 35.2 -55 28
    endloop
  endfacet
  facet normal 0 -1 0
    outer loop
      vertex 33 -55 11
      vertex 35.2 -55 11
      vertex 35.2 -55 28
    endloop
  endfacet
  facet normal 0 -1 0
    outer loop
      vertex 33 -55 11
      vertex 35.2 -55 28
      vertex 33 -55 28
    endloop
  endfacet
  facet normal 0 1 0
    outer loop
      vertex 33 -52.2 11
      vertex 33 -52.2 28
      vertex 35.2 -52.2 28
    endloop
  endfacet
  facet normal 0 1 0
    outer loop
      vertex 33 -52.2 11
      vertex 35.2 -52.2 28
      vertex 35.2 -52.2 11
    endloop
  endfacet
  facet normal 0 0 -1
    outer loop
      vertex 40 -55 11
      vertex 42.2 -52.2 11
      vertex 42.2 -55 11
    endloop
  endfacet
  facet normal 0 0 -1
    outer loop
      vertex 40 -55 11
      vertex 40 -52.2 11
      vertex 42.2 -52.2 11
    endloop
  endfacet
  facet normal 0 0 1
    outer loop
      vertex 40 -55 28
      vertex 42.2 -55 28
      vertex 42.2 -52.2 28
    endloop
  endfacet
  facet normal 0 0 1
    outer loop
      vertex 40 -55 28
      vertex 42.2 -52.2 28
      vertex 40 -52.2 28
    endloop
  endfacet
  facet normal -1 0 0
    outer loop
      vertex 40 -55 11
      vertex 40 -55 28
      vertex 40 -52.2 28
    endloop
  endfacet
  facet normal -1 0 0
    outer loop
      vertex 40 -55 11
      vertex 40 -52.2 28
      vertex 40 -52.2 11
    endloop
  endfacet
  facet normal 1 0 0
    outer loop
      vertex 42.2 -55 11
      vertex 42.2 -52.2 11
      vertex 42.2 -52.2 28
    endloop
  endfacet
  facet normal 1 0 0
    outer loop
      vertex 42.2 -55 11
      vertex 42.2 -52.2 28
      vertex 42.2 -55 28
    endloop
  endfacet
  facet normal 0 -1 0
    outer loop
      vertex 40 -55 11
      vertex 42.2 -55 11
      vertex 42.2 -55 28
    endloop
  endfacet
  facet normal 0 -1 0
    outer loop
      vertex 40 -55 11
      vertex 42.2 -55 28
      vertex 40 -55 28
    endloop
  endfacet
  facet normal 0 1 0
    outer loop
      vertex 40 -52.2 11
      vertex 40 -52.2 28
      vertex 42.2 -52.2 28
    endloop
  endfacet
  facet normal 0 1 0
    outer loop
      vertex 40 -52.2 11
      vertex 42.2 -52.2 28
      vertex 42.2 -52.2 11
    endloop
  endfacet
  facet normal 0 0 -1
    outer loop
      vertex 47 -55 11
      vertex 49.2 -52.2 11
      vertex 49.2 -55 11
    endloop
  endfacet
  facet normal 0 0 -1
    outer loop
      vertex 47 -55 11
      vertex 47 -52.2 11
      vertex 49.2 -52.2 11
    endloop
  endfacet
  facet normal 0 0 1
    outer loop
      vertex 47 -55 28
      vertex 49.2 -55 28
      vertex 49.2 -52.2 28
    endloop
  endfacet
  facet normal 0 0 1
    outer loop
      vertex 47 -55 28
      vertex 49.2 -52.2 28
      vertex 47 -52.2 28
    endloop
  endfacet
  facet normal -1 0 0
    outer loop
      vertex 47 -55 11
      vertex 47 -55 28
      vertex 47 -52.2 28
    endloop
  endfacet
  facet normal -1 0 0
    outer loop
      vertex 47 -55 11
      vertex 47 -52.2 28
      vertex 47 -52.2 11
    endloop
  endfacet
  facet normal 1 0 0
    outer loop
      vertex 49.2 -55 11
      vertex 49.2 -52.2 11
      vertex 49.2 -52.2 28
    endloop
  endfacet
  facet normal 1 0 0
    outer loop
      vertex 49.2 -55 11
      vertex 49.2 -52.2 28
      vertex 49.2 -55 28
    endloop
  endfacet
  facet normal 0 -1 0
    outer loop
      vertex 47 -55 11
      vertex 49.2 -55 11
      vertex 49.2 -55 28
    endloop
  endfacet
  facet normal 0 -1 0
    outer loop
      vertex 47 -55 11
      vertex 49.2 -55 28
      vertex 47 -55 28
    endloop
  endfacet
  facet normal 0 1 0
    outer loop
      vertex 47 -52.2 11
      vertex 47 -52.2 28
      vertex 49.2 -52.2 28
    endloop
  endfacet
  facet normal 0 1 0
    outer loop
      vertex 47 -52.2 11
      vertex 49.2 -52.2 28
      vertex 49.2 -52.2 11
    endloop
  endfacet
  facet normal 0 0 -1
    outer loop
      vertex 54 -55 11
      vertex 56.2 -52.2 11
      vertex 56.2 -55 11
    endloop
  endfacet
  facet normal 0 0 -1
    outer loop
      vertex 54 -55 11
      vertex 54 -52.2 11
      vertex 56.2 -52.2 11
    endloop
  endfacet
  facet normal 0 0 1
    outer loop
      vertex 54 -55 28
      vertex 56.2 -55 28
      vertex 56.2 -52.2 28
    endloop
  endfacet
  facet normal 0 0 1
    outer loop
      vertex 54 -55 28
      vertex 56.2 -52.2 28
      vertex 54 -52.2 28
    endloop
  endfacet
  facet normal -1 0 0
    outer loop
      vertex 54 -55 11
      vertex 54 -55 28
      vertex 54 -52.2 28
    endloop
  endfacet
  facet normal -1 0 0
    outer loop
      vertex 54 -55 11
      vertex 54 -52.2 28
      vertex 54 -52.2 11
    endloop
  endfacet
  facet normal 1 0 0
    outer loop
      vertex 56.2 -55 11
      vertex 56.2 -52.2 11
      vertex 56.2 -52.2 28
    endloop
  endfacet
  facet normal 1 0 0
    outer loop
      vertex 56.2 -55 11
      vertex 56.2 -52.2 28
      vertex 56.2 -55 28
    endloop
  endfacet
  facet normal 0 -1 0
    outer loop
      vertex 54 -55 11
      vertex 56.2 -55 11
      vertex 56.2 -55 28
    endloop
  endfacet
  facet normal 0 -1 0
    outer loop
      vertex 54 -55 11
      vertex 56.2 -55 28
      vertex 54 -55 28
    endloop
  endfacet
  facet normal 0 1 0
    outer loop
      vertex 54 -52.2 11
      vertex 54 -52.2 28
      vertex 56.2 -52.2 28
    endloop
  endfacet
  facet normal 0 1 0
    outer loop
      vertex 54 -52.2 11
      vertex 56.2 -52.2 28
      vertex 56.2 -52.2 11
    endloop
  endfacet
  facet normal 0 0 -1
    outer loop
      vertex 61 -55 11
      vertex 63.2 -52.2 11
      vertex 63.2 -55 11
    endloop
  endfacet
  facet normal 0 0 -1
    outer loop
      vertex 61 -55 11
      vertex 61 -52.2 11
      vertex 63.2 -52.2 11
    endloop
  endfacet
  facet normal 0 0 1
    outer loop
      vertex 61 -55 28
      vertex 63.2 -55 28
      vertex 63.2 -52.2 28
    endloop
  endfacet
  facet normal 0 0 1
    outer loop
      vertex 61 -55 28
      vertex 63.2 -52.2 28
      vertex 61 -52.2 28
    endloop
  endfacet
  facet normal -1 0 0
    outer loop
      vertex 61 -55 11
      vertex 61 -55 28
      vertex 61 -52.2 28
    endloop
  endfacet
  facet normal -1 0 0
    outer loop
      vertex 61 -55 11
      vertex 61 -52.2 28
      vertex 61 -52.2 11
    endloop
  endfacet
  facet normal 1 0 0
    outer loop
      vertex 63.2 -55 11
      vertex 63.2 -52.2 11
      vertex 63.2 -52.2 28
    endloop
  endfacet
  facet normal 1 0 0
    outer loop
      vertex 63.2 -55 11
      vertex 63.2 -52.2 28
      vertex 63.2 -55 28
    endloop
  endfacet
  facet normal 0 -1 0
    outer loop
      vertex 61 -55 11
      vertex 63.2 -55 11
      vertex 63.2 -55 28
    endloop
  endfacet
  facet normal 0 -1 0
    outer loop
      vertex 61 -55 11
      vertex 63.2 -55 28
      vertex 61 -55 28
    endloop
  endfacet
  facet normal 0 1 0
    outer loop
      vertex 61 -52.2 11
      vertex 61 -52.2 28
      vertex 63.2 -52.2 28
    endloop
  endfacet
  facet normal 0 1 0
    outer loop
      vertex 61 -52.2 11
      vertex 63.2 -52.2 28
      vertex 63.2 -52.2 11
    endloop
  endfacet
  facet normal 0 0 -1
    outer loop
      vertex 68 -55 11
      vertex 70.2 -52.2 11
      vertex 70.2 -55 11
    endloop
  endfacet
  facet normal 0 0 -1
    outer loop
      vertex 68 -55 11
      vertex 68 -52.2 11
      vertex 70.2 -52.2 11
    endloop
  endfacet
  facet normal 0 0 1
    outer loop
      vertex 68 -55 28
      vertex 70.2 -55 28
      vertex 70.2 -52.2 28
    endloop
  endfacet
  facet normal 0 0 1
    outer loop
      vertex 68 -55 28
      vertex 70.2 -52.2 28
      vertex 68 -52.2 28
    endloop
  endfacet
  facet normal -1 0 0
    outer loop
      vertex 68 -55 11
      vertex 68 -55 28
      vertex 68 -52.2 28
    endloop
  endfacet
  facet normal -1 0 0
    outer loop
      vertex 68 -55 11
      vertex 68 -52.2 28
      vertex 68 -52.2 11
    endloop
  endfacet
  facet normal 1 0 0
    outer loop
      vertex 70.2 -55 11
      vertex 70.2 -52.2 11
      vertex 70.2 -52.2 28
    endloop
  endfacet
  facet normal 1 0 0
    outer loop
      vertex 70.2 -55 11
      vertex 70.2 -52.2 28
      vertex 70.2 -55 28
    endloop
  endfacet
  facet normal 0 -1 0
    outer loop
      vertex 68 -55 11
      vertex 70.2 -55 11
      vertex 70.2 -55 28
    endloop
  endfacet
  facet normal 0 -1 0
    outer loop
      vertex 68 -55 11
      vertex 70.2 -55 28
      vertex 68 -55 28
    endloop
  endfacet
  facet normal 0 1 0
    outer loop
      vertex 68 -52.2 11
      vertex 68 -52.2 28
      vertex 70.2 -52.2 28
    endloop
  endfacet
  facet normal 0 1 0
    outer loop
      vertex 68 -52.2 11
      vertex 70.2 -52.2 28
      vertex 70.2 -52.2 11
    endloop
  endfacet
  facet normal 0 0 -1
    outer loop
      vertex 75 -55 11
      vertex 77.2 -52.2 11
      vertex 77.2 -55 11
    endloop
  endfacet
  facet normal 0 0 -1
    outer loop
      vertex 75 -55 11
      vertex 75 -52.2 11
      vertex 77.2 -52.2 11
    endloop
  endfacet
  facet normal 0 0 1
    outer loop
      vertex 75 -55 28
      vertex 77.2 -55 28
      vertex 77.2 -52.2 28
    endloop
  endfacet
  facet normal 0 0 1
    outer loop
      vertex 75 -55 28
      vertex 77.2 -52.2 28
      vertex 75 -52.2 28
    endloop
  endfacet
  facet normal -1 0 0
    outer loop
      vertex 75 -55 11
      vertex 75 -55 28
      vertex 75 -52.2 28
    endloop
  endfacet
  facet normal -1 0 0
    outer loop
      vertex 75 -55 11
      vertex 75 -52.2 28
      vertex 75 -52.2 11
    endloop
  endfacet
  facet normal 1 0 0
    outer loop
      vertex 77.2 -55 11
      vertex 77.2 -52.2 11
      vertex 77.2 -52.2 28
    endloop
  endfacet
  facet normal 1 0 0
    outer loop
      vertex 77.2 -55 11
      vertex 77.2 -52.2 28
      vertex 77.2 -55 28
    endloop
  endfacet
  facet normal 0 -1 0
    outer loop
      vertex 75 -55 11
      vertex 77.2 -55 11
      vertex 77.2 -55 28
    endloop
  endfacet
  facet normal 0 -1 0
    outer loop
      vertex 75 -55 11
      vertex 77.2 -55 28
      vertex 75 -55 28
    endloop
  endfacet
  facet normal 0 1 0
    outer loop
      vertex 75 -52.2 11
      vertex 75 -52.2 28
      vertex 77.2 -52.2 28
    endloop
  endfacet
  facet normal 0 1 0
    outer loop
      vertex 75 -52.2 11
      vertex 77.2 -52.2 28
      vertex 77.2 -52.2 11
    endloop
  endfacet
  facet normal 0 0 -1
    outer loop
      vertex 82 -55 11
      vertex 84.2 -52.2 11
      vertex 84.2 -55 11
    endloop
  endfacet
  facet normal 0 0 -1
    outer loop
      vertex 82 -55 11
      vertex 82 -52.2 11
      vertex 84.2 -52.2 11
    endloop
  endfacet
  facet normal 0 0 1
    outer loop
      vertex 82 -55 28
      vertex 84.2 -55 28
      vertex 84.2 -52.2 28
    endloop
  endfacet
  facet normal 0 0 1
    outer loop
      vertex 82 -55 28
      vertex 84.2 -52.2 28
      vertex 82 -52.2 28
    endloop
  endfacet
  facet normal -1 0 0
    outer loop
      vertex 82 -55 11
      vertex 82 -55 28
      vertex 82 -52.2 28
    endloop
  endfacet
  facet normal -1 0 0
    outer loop
      vertex 82 -55 11
      vertex 82 -52.2 28
      vertex 82 -52.2 11
    endloop
  endfacet
  facet normal 1 0 0
    outer loop
      vertex 84.2 -55 11
      vertex 84.2 -52.2 11
      vertex 84.2 -52.2 28
    endloop
  endfacet
  facet normal 1 0 0
    outer loop
      vertex 84.2 -55 11
      vertex 84.2 -52.2 28
      vertex 84.2 -55 28
    endloop
  endfacet
  facet normal 0 -1 0
    outer loop
      vertex 82 -55 11
      vertex 84.2 -55 11
      vertex 84.2 -55 28
    endloop
  endfacet
  facet normal 0 -1 0
    outer loop
      vertex 82 -55 11
      vertex 84.2 -55 28
      vertex 82 -55 28
    endloop
  endfacet
  facet normal 0 1 0
    outer loop
      vertex 82 -52.2 11
      vertex 82 -52.2 28
      vertex 84.2 -52.2 28
    endloop
  endfacet
  facet normal 0 1 0
    outer loop
      vertex 82 -52.2 11
      vertex 84.2 -52.2 28
      vertex 84.2 -52.2 11
    endloop
  endfacet
  facet normal 0 0 -1
    outer loop
      vertex 12 -55 0
      vertex 15 -52.2 0
      vertex 15 -55 0
    endloop
  endfacet
  facet normal 0 0 -1
    outer loop
      vertex 12 -55 0
      vertex 12 -52.2 0
      vertex 15 -52.2 0
    endloop
  endfacet
  facet normal 0 0 1
    outer loop
      vertex 12 -55 32
      vertex 15 -55 32
      vertex 15 -52.2 32
    endloop
  endfacet
  facet normal 0 0 1
    outer loop
      vertex 12 -55 32
      vertex 15 -52.2 32
      vertex 12 -52.2 32
    endloop
  endfacet
  facet normal -1 0 0
    outer loop
      vertex 12 -55 0
      vertex 12 -55 32
      vertex 12 -52.2 32
    endloop
  endfacet
  facet normal -1 0 0
    outer loop
      vertex 12 -55 0
      vertex 12 -52.2 32
      vertex 12 -52.2 0
    endloop
  endfacet
  facet normal 1 0 0
    outer loop
      vertex 15 -55 0
      vertex 15 -52.2 0
      vertex 15 -52.2 32
    endloop
  endfacet
  facet normal 1 0 0
    outer loop
      vertex 15 -55 0
      vertex 15 -52.2 32
      vertex 15 -55 32
    endloop
  endfacet
  facet normal 0 -1 0
    outer loop
      vertex 12 -55 0
      vertex 15 -55 0
      vertex 15 -55 32
    endloop
  endfacet
  facet normal 0 -1 0
    outer loop
      vertex 12 -55 0
      vertex 15 -55 32
      vertex 12 -55 32
    endloop
  endfacet
  facet normal 0 1 0
    outer loop
      vertex 12 -52.2 0
      vertex 12 -52.2 32
      vertex 15 -52.2 32
    endloop
  endfacet
  facet normal 0 1 0
    outer loop
      vertex 12 -52.2 0
      vertex 15 -52.2 32
      vertex 15 -52.2 0
    endloop
  endfacet
  facet normal 0 0 -1
    outer loop
      vertex 85 -55 0
      vertex 88 -52.2 0
      vertex 88 -55 0
    endloop
  endfacet
  facet normal 0 0 -1
    outer loop
      vertex 85 -55 0
      vertex 85 -52.2 0
      vertex 88 -52.2 0
    endloop
  endfacet
  facet normal 0 0 1
    outer loop
      vertex 85 -55 32
      vertex 88 -55 32
      vertex 88 -52.2 32
    endloop
  endfacet
  facet normal 0 0 1
    outer loop
      vertex 85 -55 32
      vertex 88 -52.2 32
      vertex 85 -52.2 32
    endloop
  endfacet
  facet normal -1 0 0
    outer loop
      vertex 85 -55 0
      vertex 85 -55 32
      vertex 85 -52.2 32
    endloop
  endfacet
  facet normal -1 0 0
    outer loop
      vertex 85 -55 0
      vertex 85 -52.2 32
      vertex 85 -52.2 0
    endloop
  endfacet
  facet normal 1 0 0
    outer loop
      vertex 88 -55 0
      vertex 88 -52.2 0
      vertex 88 -52.2 32
    endloop
  endfacet
  facet normal 1 0 0
    outer loop
      vertex 88 -55 0
      vertex 88 -52.2 32
      vertex 88 -55 32
    endloop
  endfacet
  facet normal 0 -1 0
    outer loop
      vertex 85 -55 0
      vertex 88 -55 0
      vertex 88 -55 32
    endloop
  endfacet
  facet normal 0 -1 0
    outer loop
      vertex 85 -55 0
      vertex 88 -55 32
      vertex 85 -55 32
    endloop
  endfacet
  facet normal 0 1 0
    outer loop
      vertex 85 -52.2 0
      vertex 85 -52.2 32
      vertex 88 -52.2 32
    endloop
  endfacet
  facet normal 0 1 0
    outer loop
      vertex 85 -52.2 0
      vertex 88 -52.2 32
      vertex 88 -52.2 0
    endloop
  endfacet
  facet normal 0 0 -1
    outer loop
      vertex 0 -55 32
      vertex 100 -52.2 32
      vertex 100 -55 32
    endloop
  endfacet
  facet normal 0 0 -1
    outer loop
      vertex 0 -55 32
      vertex 0 -52.2 32
      vertex 100 -52.2 32
    endloop
  endfacet
  facet normal 0 0 1
    outer loop
      vertex 0 -55 80
      vertex 100 -55 80
      vertex 100 -52.2 80
    endloop
  endfacet
  facet normal 0 0 1
    outer loop
      vertex 0 -55 80
      vertex 100 -52.2 80
      vertex 0 -52.2 80
    endloop
  endfacet
  facet normal -1 0 0
    outer loop
      vertex 0 -55 32
      vertex 0 -55 80
      vertex 0 -52.2 80
    endloop
  endfacet
  facet normal -1 0 0
    outer loop
      vertex 0 -55 32
      vertex 0 -52.2 80
      vertex 0 -52.2 32
    endloop
  endfacet
  facet normal 1 0 0
    outer loop
      vertex 100 -55 32
      vertex 100 -52.2 32
      vertex 100 -52.2 80
    endloop
  endfacet
  facet normal 1 0 0
    outer loop
      vertex 100 -55 32
      vertex 100 -52.2 80
      vertex 100 -55 80
    endloop
  endfacet
  facet normal 0 -1 0
    outer loop
      vertex 0 -55 32
      vertex 100 -55 32
      vertex 100 -55 80
    endloop
  endfacet
  facet normal 0 -1 0
    outer loop
      vertex 0 -55 32
      vertex 100 -55 80
      vertex 0 -55 80
    endloop
  endfacet
  facet normal 0 1 0
    outer loop
      vertex 0 -52.2 32
      vertex 0 -52.2 80
      vertex 100 -52.2 80
    endloop
  endfacet
  facet normal 0 1 0
    outer loop
      vertex 0 -52.2 32
      vertex 100 -52.2 80
      vertex 100 -52.2 32
    endloop
  endfacet
  facet normal 0 0 -1
    outer loop
      vertex 0 -55 76
      vertex 100 -52.2 76
      vertex 100 -55 76
    endloop
  endfacet
  facet normal 0 0 -1
    outer loop
      vertex 0 -55 76
      vertex 0 -52.2 76
      vertex 100 -52.2 76
    endloop
  endfacet
  facet normal 0 0 1
    outer loop
      vertex 0 -55 80
      vertex 100 -55 80
      vertex 100 -52.2 80
    endloop
  endfacet
  facet normal 0 0 1
    outer loop
      vertex 0 -55 80
      vertex 100 -52.2 80
      vertex 0 -52.2 80
    endloop
  endfacet
  facet normal -1 0 0
    outer loop
      vertex 0 -55 76
      vertex 0 -55 80
      vertex 0 -52.2 80
    endloop
  endfacet
  facet normal -1 0 0
    outer loop
      vertex 0 -55 76
      vertex 0 -52.2 80
      vertex 0 -52.2 76
    endloop
  endfacet
  facet normal 1 0 0
    outer loop
      vertex 100 -55 76
      vertex 100 -52.2 76
      vertex 100 -52.2 80
    endloop
  endfacet
  facet normal 1 0 0
    outer loop
      vertex 100 -55 76
      vertex 100 -52.2 80
      vertex 100 -55 80
    endloop
  endfacet
  facet normal 0 -1 0
    outer loop
      vertex 0 -55 76
      vertex 100 -55 76
      vertex 100 -55 80
    endloop
  endfacet
  facet normal 0 -1 0
    outer loop
      vertex 0 -55 76
      vertex 100 -55 80
      vertex 0 -55 80
    endloop
  endfacet
  facet normal 0 1 0
    outer loop
      vertex 0 -52.2 76
      vertex 0 -52.2 80
      vertex 100 -52.2 80
    endloop
  endfacet
  facet normal 0 1 0
    outer loop
      vertex 0 -52.2 76
      vertex 100 -52.2 80
      vertex 100 -52.2 76
    endloop
  endfacet
  facet normal 0 0 -1
    outer loop
      vertex 5 -55 52
      vertex 95 -52.2 52
      vertex 95 -55 52
    endloop
  endfacet
  facet normal 0 0 -1
    outer loop
      vertex 5 -55 52
      vertex 5 -52.2 52
      vertex 95 -52.2 52
    endloop
  endfacet
  facet normal 0 0 1
    outer loop
      vertex 5 -55 55
      vertex 95 -55 55
      vertex 95 -52.2 55
    endloop
  endfacet
  facet normal 0 0 1
    outer loop
      vertex 5 -55 55
      vertex 95 -52.2 55
      vertex 5 -52.2 55
    endloop
  endfacet
  facet normal -1 0 0
    outer loop
      vertex 5 -55 52
      vertex 5 -55 55
      vertex 5 -52.2 55
    endloop
  endfacet
  facet normal -1 0 0
    outer loop
      vertex 5 -55 52
      vertex 5 -52.2 55
      vertex 5 -52.2 52
    endloop
  endfacet
  facet normal 1 0 0
    outer loop
      vertex 95 -55 52
      vertex 95 -52.2 52
      vertex 95 -52.2 55
    endloop
  endfacet
  facet normal 1 0 0
    outer loop
      vertex 95 -55 52
      vertex 95 -52.2 55
      vertex 95 -55 55
    endloop
  endfacet
  facet normal 0 -1 0
    outer loop
      vertex 5 -55 52
      vertex 95 -55 52
      vertex 95 -55 55
    endloop
  endfacet
  facet normal 0 -1 0
    outer loop
      vertex 5 -55 52
      vertex 95 -55 55
      vertex 5 -55 55
    endloop
  endfacet
  facet normal 0 1 0
    outer loop
      vertex 5 -52.2 52
      vertex 5 -52.2 55
      vertex 95 -52.2 55
    endloop
  endfacet
  facet normal 0 1 0
    outer loop
      vertex 5 -52.2 52
      vertex 95 -52.2 55
      vertex 95 -52.2 52
    endloop
  endfacet
  facet normal 0 0 -1
    outer loop
      vertex 12 -56.6 42
      vertex 88 -53.8 42
      vertex 88 -56.6 42
    endloop
  endfacet
  facet normal 0 0 -1
    outer loop
      vertex 12 -56.6 42
      vertex 12 -53.8 42
      vertex 88 -53.8 42
    endloop
  endfacet
  facet normal 0 0 1
    outer loop
      vertex 12 -56.6 46
      vertex 88 -56.6 46
      vertex 88 -53.8 46
    endloop
  endfacet
  facet normal 0 0 1
    outer loop
      vertex 12 -56.6 46
      vertex 88 -53.8 46
      vertex 12 -53.8 46
    endloop
  endfacet
  facet normal -1 0 0
    outer loop
      vertex 12 -56.6 42
      vertex 12 -56.6 46
      vertex 12 -53.8 46
    endloop
  endfacet
  facet normal -1 0 0
    outer loop
      vertex 12 -56.6 42
      vertex 12 -53.8 46
      vertex 12 -53.8 42
    endloop
  endfacet
  facet normal 1 0 0
    outer loop
      vertex 88 -56.6 42
      vertex 88 -53.8 42
      vertex 88 -53.8 46
    endloop
  endfacet
  facet normal 1 0 0
    outer loop
      vertex 88 -56.6 42
      vertex 88 -53.8 46
      vertex 88 -56.6 46
    endloop
  endfacet
  facet normal 0 -1 0
    outer loop
      vertex 12 -56.6 42
      vertex 88 -56.6 42
      vertex 88 -56.6 46
    endloop
  endfacet
  facet normal 0 -1 0
    outer loop
      vertex 12 -56.6 42
      vertex 88 -56.6 46
      vertex 12 -56.6 46
    endloop
  endfacet
  facet normal 0 1 0
    outer loop
      vertex 12 -53.8 42
      vertex 12 -53.8 46
      vertex 88 -53.8 46
    endloop
  endfacet
  facet normal 0 1 0
    outer loop
      vertex 12 -53.8 42
      vertex 88 -53.8 46
      vertex 88 -53.8 42
    endloop
  endfacet
  facet normal 0 0 -1
    outer loop
      vertex 12 52.2 0
      vertex 88 55 0
      vertex 88 52.2 0
    endloop
  endfacet
  facet normal 0 0 -1
    outer loop
      vertex 12 52.2 0
      vertex 12 55 0
      vertex 88 55 0
    endloop
  endfacet
  facet normal 0 0 1
    outer loop
      vertex 12 52.2 8
      vertex 88 52.2 8
      vertex 88 55 8
    endloop
  endfacet
  facet normal 0 0 1
    outer loop
      vertex 12 52.2 8
      vertex 88 55 8
      vertex 12 55 8
    endloop
  endfacet
  facet normal -1 0 0
    outer loop
      vertex 12 52.2 0
      vertex 12 52.2 8
      vertex 12 55 8
    endloop
  endfacet
  facet normal -1 0 0
    outer loop
      vertex 12 52.2 0
      vertex 12 55 8
      vertex 12 55 0
    endloop
  endfacet
  facet normal 1 0 0
    outer loop
      vertex 88 52.2 0
      vertex 88 55 0
      vertex 88 55 8
    endloop
  endfacet
  facet normal 1 0 0
    outer loop
      vertex 88 52.2 0
      vertex 88 55 8
      vertex 88 52.2 8
    endloop
  endfacet
  facet normal 0 -1 0
    outer loop
      vertex 12 52.2 0
      vertex 88 52.2 0
      vertex 88 52.2 8
    endloop
  endfacet
  facet normal 0 -1 0
    outer loop
      vertex 12 52.2 0
      vertex 88 52.2 8
      vertex 12 52.2 8
    endloop
  endfacet
  facet normal 0 1 0
    outer loop
      vertex 12 55 0
      vertex 12 55 8
      vertex 88 55 8
    endloop
  endfacet
  facet normal 0 1 0
    outer loop
      vertex 12 55 0
      vertex 88 55 8
      vertex 88 55 0
    endloop
  endfacet
  facet normal 0 0 -1
    outer loop
      vertex 12 52.2 28
      vertex 88 55 28
      vertex 88 52.2 28
    endloop
  endfacet
  facet normal 0 0 -1
    outer loop
      vertex 12 52.2 28
      vertex 12 55 28
      vertex 88 55 28
    endloop
  endfacet
  facet normal 0 0 1
    outer loop
      vertex 12 52.2 32
      vertex 88 52.2 32
      vertex 88 55 32
    endloop
  endfacet
  facet normal 0 0 1
    outer loop
      vertex 12 52.2 32
      vertex 88 55 32
      vertex 12 55 32
    endloop
  endfacet
  facet normal -1 0 0
    outer loop
      vertex 12 52.2 28
      vertex 12 52.2 32
      vertex 12 55 32
    endloop
  endfacet
  facet normal -1 0 0
    outer loop
      vertex 12 52.2 28
      vertex 12 55 32
      vertex 12 55 28
    endloop
  endfacet
  facet normal 1 0 0
    outer loop
      vertex 88 52.2 28
      vertex 88 55 28
      vertex 88 55 32
    endloop
  endfacet
  facet normal 1 0 0
    outer loop
      vertex 88 52.2 28
      vertex 88 55 32
      vertex 88 52.2 32
    endloop
  endfacet
  facet normal 0 -1 0
    outer loop
      vertex 12 52.2 28
      vertex 88 52.2 28
      vertex 88 52.2 32
    endloop
  endfacet
  facet normal 0 -1 0
    outer loop
      vertex 12 52.2 28
      vertex 88 52.2 32
      vertex 12 52.2 32
    endloop
  endfacet
  facet normal 0 1 0
    outer loop
      vertex 12 55 28
      vertex 12 55 32
      vertex 88 55 32
    endloop
  endfacet
  facet normal 0 1 0
    outer loop
      vertex 12 55 28
      vertex 88 55 32
      vertex 88 55 28
    endloop
  endfacet
  facet normal 0 0 -1
    outer loop
      vertex 12 52.2 11
      vertex 14.2 55 11
      vertex 14.2 52.2 11
    endloop
  endfacet
  facet normal 0 0 -1
    outer loop
      vertex 12 52.2 11
      vertex 12 55 11
      vertex 14.2 55 11
    endloop
  endfacet
  facet normal 0 0 1
    outer loop
      vertex 12 52.2 28
      vertex 14.2 52.2 28
      vertex 14.2 55 28
    endloop
  endfacet
  facet normal 0 0 1
    outer loop
      vertex 12 52.2 28
      vertex 14.2 55 28
      vertex 12 55 28
    endloop
  endfacet
  facet normal -1 0 0
    outer loop
      vertex 12 52.2 11
      vertex 12 52.2 28
      vertex 12 55 28
    endloop
  endfacet
  facet normal -1 0 0
    outer loop
      vertex 12 52.2 11
      vertex 12 55 28
      vertex 12 55 11
    endloop
  endfacet
  facet normal 1 0 0
    outer loop
      vertex 14.2 52.2 11
      vertex 14.2 55 11
      vertex 14.2 55 28
    endloop
  endfacet
  facet normal 1 0 0
    outer loop
      vertex 14.2 52.2 11
      vertex 14.2 55 28
      vertex 14.2 52.2 28
    endloop
  endfacet
  facet normal 0 -1 0
    outer loop
      vertex 12 52.2 11
      vertex 14.2 52.2 11
      vertex 14.2 52.2 28
    endloop
  endfacet
  facet normal 0 -1 0
    outer loop
      vertex 12 52.2 11
      vertex 14.2 52.2 28
      vertex 12 52.2 28
    endloop
  endfacet
  facet normal 0 1 0
    outer loop
      vertex 12 55 11
      vertex 12 55 28
      vertex 14.2 55 28
    endloop
  endfacet
  facet normal 0 1 0
    outer loop
      vertex 12 55 11
      vertex 14.2 55 28
      vertex 14.2 55 11
    endloop
  endfacet
  facet normal 0 0 -1
    outer loop
      vertex 19 52.2 11
      vertex 21.2 55 11
      vertex 21.2 52.2 11
    endloop
  endfacet
  facet normal 0 0 -1
    outer loop
      vertex 19 52.2 11
      vertex 19 55 11
      vertex 21.2 55 11
    endloop
  endfacet
  facet normal 0 0 1
    outer loop
      vertex 19 52.2 28
      vertex 21.2 52.2 28
      vertex 21.2 55 28
    endloop
  endfacet
  facet normal 0 0 1
    outer loop
      vertex 19 52.2 28
      vertex 21.2 55 28
      vertex 19 55 28
    endloop
  endfacet
  facet normal -1 0 0
    outer loop
      vertex 19 52.2 11
      vertex 19 52.2 28
      vertex 19 55 28
    endloop
  endfacet
  facet normal -1 0 0
    outer loop
      vertex 19 52.2 11
      vertex 19 55 28
      vertex 19 55 11
    endloop
  endfacet
  facet normal 1 0 0
    outer loop
      vertex 21.2 52.2 11
      vertex 21.2 55 11
      vertex 21.2 55 28
    endloop
  endfacet
  facet normal 1 0 0
    outer loop
      vertex 21.2 52.2 11
      vertex 21.2 55 28
      vertex 21.2 52.2 28
    endloop
  endfacet
  facet normal 0 -1 0
    outer loop
      vertex 19 52.2 11
      vertex 21.2 52.2 11
      vertex 21.2 52.2 28
    endloop
  endfacet
  facet normal 0 -1 0
    outer loop
      vertex 19 52.2 11
      vertex 21.2 52.2 28
      vertex 19 52.2 28
    endloop
  endfacet
  facet normal 0 1 0
    outer loop
      vertex 19 55 11
      vertex 19 55 28
      vertex 21.2 55 28
    endloop
  endfacet
  facet normal 0 1 0
    outer loop
      vertex 19 55 11
      vertex 21.2 55 28
      vertex 21.2 55 11
    endloop
  endfacet
  facet normal 0 0 -1
    outer loop
      vertex 26 52.2 11
      vertex 28.2 55 11
      vertex 28.2 52.2 11
    endloop
  endfacet
  facet normal 0 0 -1
    outer loop
      vertex 26 52.2 11
      vertex 26 55 11
      vertex 28.2 55 11
    endloop
  endfacet
  facet normal 0 0 1
    outer loop
      vertex 26 52.2 28
      vertex 28.2 52.2 28
      vertex 28.2 55 28
    endloop
  endfacet
  facet normal 0 0 1
    outer loop
      vertex 26 52.2 28
      vertex 28.2 55 28
      vertex 26 55 28
    endloop
  endfacet
  facet normal -1 0 0
    outer loop
      vertex 26 52.2 11
      vertex 26 52.2 28
      vertex 26 55 28
    endloop
  endfacet
  facet normal -1 0 0
    outer loop
      vertex 26 52.2 11
      vertex 26 55 28
      vertex 26 55 11
    endloop
  endfacet
  facet normal 1 0 0
    outer loop
      vertex 28.2 52.2 11
      vertex 28.2 55 11
      vertex 28.2 55 28
    endloop
  endfacet
  facet normal 1 0 0
    outer loop
      vertex 28.2 52.2 11
      vertex 28.2 55 28
      vertex 28.2 52.2 28
    endloop
  endfacet
  facet normal 0 -1 0
    outer loop
      vertex 26 52.2 11
      vertex 28.2 52.2 11
      vertex 28.2 52.2 28
    endloop
  endfacet
  facet normal 0 -1 0
    outer loop
      vertex 26 52.2 11
      vertex 28.2 52.2 28
      vertex 26 52.2 28
    endloop
  endfacet
  facet normal 0 1 0
    outer loop
      vertex 26 55 11
      vertex 26 55 28
      vertex 28.2 55 28
    endloop
  endfacet
  facet normal 0 1 0
    outer loop
      vertex 26 55 11
      vertex 28.2 55 28
      vertex 28.2 55 11
    endloop
  endfacet
  facet normal 0 0 -1
    outer loop
      vertex 33 52.2 11
      vertex 35.2 55 11
      vertex 35.2 52.2 11
    endloop
  endfacet
  facet normal 0 0 -1
    outer loop
      vertex 33 52.2 11
      vertex 33 55 11
      vertex 35.2 55 11
    endloop
  endfacet
  facet normal 0 0 1
    outer loop
      vertex 33 52.2 28
      vertex 35.2 52.2 28
      vertex 35.2 55 28
    endloop
  endfacet
  facet normal 0 0 1
    outer loop
      vertex 33 52.2 28
      vertex 35.2 55 28
      vertex 33 55 28
    endloop
  endfacet
  facet normal -1 0 0
    outer loop
      vertex 33 52.2 11
      vertex 33 52.2 28
      vertex 33 55 28
    endloop
  endfacet
  facet normal -1 0 0
    outer loop
      vertex 33 52.2 11
      vertex 33 55 28
      vertex 33 55 11
    endloop
  endfacet
  facet normal 1 0 0
    outer loop
      vertex 35.2 52.2 11
      vertex 35.2 55 11
      vertex 35.2 55 28
    endloop
  endfacet
  facet normal 1 0 0
    outer loop
      vertex 35.2 52.2 11
      vertex 35.2 55 28
      vertex 35.2 52.2 28
    endloop
  endfacet
  facet normal 0 -1 0
    outer loop
      vertex 33 52.2 11
      vertex 35.2 52.2 11
      vertex 35.2 52.2 28
    endloop
  endfacet
  facet normal 0 -1 0
    outer loop
      vertex 33 52.2 11
      vertex 35.2 52.2 28
      vertex 33 52.2 28
    endloop
  endfacet
  facet normal 0 1 0
    outer loop
      vertex 33 55 11
      vertex 33 55 28
      vertex 35.2 55 28
    endloop
  endfacet
  facet normal 0 1 0
    outer loop
      vertex 33 55 11
      vertex 35.2 55 28
      vertex 35.2 55 11
    endloop
  endfacet
  facet normal 0 0 -1
    outer loop
      vertex 40 52.2 11
      vertex 42.2 55 11
      vertex 42.2 52.2 11
    endloop
  endfacet
  facet normal 0 0 -1
    outer loop
      vertex 40 52.2 11
      vertex 40 55 11
      vertex 42.2 55 11
    endloop
  endfacet
  facet normal 0 0 1
    outer loop
      vertex 40 52.2 28
      vertex 42.2 52.2 28
      vertex 42.2 55 28
    endloop
  endfacet
  facet normal 0 0 1
    outer loop
      vertex 40 52.2 28
      vertex 42.2 55 28
      vertex 40 55 28
    endloop
  endfacet
  facet normal -1 0 0
    outer loop
      vertex 40 52.2 11
      vertex 40 52.2 28
      vertex 40 55 28
    endloop
  endfacet
  facet normal -1 0 0
    outer loop
      vertex 40 52.2 11
      vertex 40 55 28
      vertex 40 55 11
    endloop
  endfacet
  facet normal 1 0 0
    outer loop
      vertex 42.2 52.2 11
      vertex 42.2 55 11
      vertex 42.2 55 28
    endloop
  endfacet
  facet normal 1 0 0
    outer loop
      vertex 42.2 52.2 11
      vertex 42.2 55 28
      vertex 42.2 52.2 28
    endloop
  endfacet
  facet normal 0 -1 0
    outer loop
      vertex 40 52.2 11
      vertex 42.2 52.2 11
      vertex 42.2 52.2 28
    endloop
  endfacet
  facet normal 0 -1 0
    outer loop
      vertex 40 52.2 11
      vertex 42.2 52.2 28
      vertex 40 52.2 28
    endloop
  endfacet
  facet normal 0 1 0
    outer loop
      vertex 40 55 11
      vertex 40 55 28
      vertex 42.2 55 28
    endloop
  endfacet
  facet normal 0 1 0
    outer loop
      vertex 40 55 11
      vertex 42.2 55 28
      vertex 42.2 55 11
    endloop
  endfacet
  facet normal 0 0 -1
    outer loop
      vertex 47 52.2 11
      vertex 49.2 55 11
      vertex 49.2 52.2 11
    endloop
  endfacet
  facet normal 0 0 -1
    outer loop
      vertex 47 52.2 11
      vertex 47 55 11
      vertex 49.2 55 11
    endloop
  endfacet
  facet normal 0 0 1
    outer loop
      vertex 47 52.2 28
      vertex 49.2 52.2 28
      vertex 49.2 55 28
    endloop
  endfacet
  facet normal 0 0 1
    outer loop
      vertex 47 52.2 28
      vertex 49.2 55 28
      vertex 47 55 28
    endloop
  endfacet
  facet normal -1 0 0
    outer loop
      vertex 47 52.2 11
      vertex 47 52.2 28
      vertex 47 55 28
    endloop
  endfacet
  facet normal -1 0 0
    outer loop
      vertex 47 52.2 11
      vertex 47 55 28
      vertex 47 55 11
    endloop
  endfacet
  facet normal 1 0 0
    outer loop
      vertex 49.2 52.2 11
      vertex 49.2 55 11
      vertex 49.2 55 28
    endloop
  endfacet
  facet normal 1 0 0
    outer loop
      vertex 49.2 52.2 11
      vertex 49.2 55 28
      vertex 49.2 52.2 28
    endloop
  endfacet
  facet normal 0 -1 0
    outer loop
      vertex 47 52.2 11
      vertex 49.2 52.2 11
      vertex 49.2 52.2 28
    endloop
  endfacet
  facet normal 0 -1 0
    outer loop
      vertex 47 52.2 11
      vertex 49.2 52.2 28
      vertex 47 52.2 28
    endloop
  endfacet
  facet normal 0 1 0
    outer loop
      vertex 47 55 11
      vertex 47 55 28
      vertex 49.2 55 28
    endloop
  endfacet
  facet normal 0 1 0
    outer loop
      vertex 47 55 11
      vertex 49.2 55 28
      vertex 49.2 55 11
    endloop
  endfacet
  facet normal 0 0 -1
    outer loop
      vertex 54 52.2 11
      vertex 56.2 55 11
      vertex 56.2 52.2 11
    endloop
  endfacet
  facet normal 0 0 -1
    outer loop
      vertex 54 52.2 11
      vertex 54 55 11
      vertex 56.2 55 11
    endloop
  endfacet
  facet normal 0 0 1
    outer loop
      vertex 54 52.2 28
      vertex 56.2 52.2 28
      vertex 56.2 55 28
    endloop
  endfacet
  facet normal 0 0 1
    outer loop
      vertex 54 52.2 28
      vertex 56.2 55 28
      vertex 54 55 28
    endloop
  endfacet
  facet normal -1 0 0
    outer loop
      vertex 54 52.2 11
      vertex 54 52.2 28
      vertex 54 55 28
    endloop
  endfacet
  facet normal -1 0 0
    outer loop
      vertex 54 52.2 11
      vertex 54 55 28
      vertex 54 55 11
    endloop
  endfacet
  facet normal 1 0 0
    outer loop
      vertex 56.2 52.2 11
      vertex 56.2 55 11
      vertex 56.2 55 28
    endloop
  endfacet
  facet normal 1 0 0
    outer loop
      vertex 56.2 52.2 11
      vertex 56.2 55 28
      vertex 56.2 52.2 28
    endloop
  endfacet
  facet normal 0 -1 0
    outer loop
      vertex 54 52.2 11
      vertex 56.2 52.2 11
      vertex 56.2 52.2 28
    endloop
  endfacet
  facet normal 0 -1 0
    outer loop
      vertex 54 52.2 11
      vertex 56.2 52.2 28
      vertex 54 52.2 28
    endloop
  endfacet
  facet normal 0 1 0
    outer loop
      vertex 54 55 11
      vertex 54 55 28
      vertex 56.2 55 28
    endloop
  endfacet
  facet normal 0 1 0
    outer loop
      vertex 54 55 11
      vertex 56.2 55 28
      vertex 56.2 55 11
    endloop
  endfacet
  facet normal 0 0 -1
    outer loop
      vertex 61 52.2 11
      vertex 63.2 55 11
      vertex 63.2 52.2 11
    endloop
  endfacet
  facet normal 0 0 -1
    outer loop
      vertex 61 52.2 11
      vertex 61 55 11
      vertex 63.2 55 11
    endloop
  endfacet
  facet normal 0 0 1
    outer loop
      vertex 61 52.2 28
      vertex 63.2 52.2 28
      vertex 63.2 55 28
    endloop
  endfacet
  facet normal 0 0 1
    outer loop
      vertex 61 52.2 28
      vertex 63.2 55 28
      vertex 61 55 28
    endloop
  endfacet
  facet normal -1 0 0
    outer loop
      vertex 61 52.2 11
      vertex 61 52.2 28
      vertex 61 55 28
    endloop
  endfacet
  facet normal -1 0 0
    outer loop
      vertex 61 52.2 11
      vertex 61 55 28
      vertex 61 55 11
    endloop
  endfacet
  facet normal 1 0 0
    outer loop
      vertex 63.2 52.2 11
      vertex 63.2 55 11
      vertex 63.2 55 28
    endloop
  endfacet
  facet normal 1 0 0
    outer loop
      vertex 63.2 52.2 11
      vertex 63.2 55 28
      vertex 63.2 52.2 28
    endloop
  endfacet
  facet normal 0 -1 0
    outer loop
      vertex 61 52.2 11
      vertex 63.2 52.2 11
      vertex 63.2 52.2 28
    endloop
  endfacet
  facet normal 0 -1 0
    outer loop
      vertex 61 52.2 11
      vertex 63.2 52.2 28
      vertex 61 52.2 28
    endloop
  endfacet
  facet normal 0 1 0
    outer loop
      vertex 61 55 11
      vertex 61 55 28
      vertex 63.2 55 28
    endloop
  endfacet
  facet normal 0 1 0
    outer loop
      vertex 61 55 11
      vertex 63.2 55 28
      vertex 63.2 55 11
    endloop
  endfacet
  facet normal 0 0 -1
    outer loop
      vertex 68 52.2 11
      vertex 70.2 55 11
      vertex 70.2 52.2 11
    endloop
  endfacet
  facet normal 0 0 -1
    outer loop
      vertex 68 52.2 11
      vertex 68 55 11
      vertex 70.2 55 11
    endloop
  endfacet
  facet normal 0 0 1
    outer loop
      vertex 68 52.2 28
      vertex 70.2 52.2 28
      vertex 70.2 55 28
    endloop
  endfacet
  facet normal 0 0 1
    outer loop
      vertex 68 52.2 28
      vertex 70.2 55 28
      vertex 68 55 28
    endloop
  endfacet
  facet normal -1 0 0
    outer loop
      vertex 68 52.2 11
      vertex 68 52.2 28
      vertex 68 55 28
    endloop
  endfacet
  facet normal -1 0 0
    outer loop
      vertex 68 52.2 11
      vertex 68 55 28
      vertex 68 55 11
    endloop
  endfacet
  facet normal 1 0 0
    outer loop
      vertex 70.2 52.2 11
      vertex 70.2 55 11
      vertex 70.2 55 28
    endloop
  endfacet
  facet normal 1 0 0
    outer loop
      vertex 70.2 52.2 11
      vertex 70.2 55 28
      vertex 70.2 52.2 28
    endloop
  endfacet
  facet normal 0 -1 0
    outer loop
      vertex 68 52.2 11
      vertex 70.2 52.2 11
      vertex 70.2 52.2 28
    endloop
  endfacet
  facet normal 0 -1 0
    outer loop
      vertex 68 52.2 11
      vertex 70.2 52.2 28
      vertex 68 52.2 28
    endloop
  endfacet
  facet normal 0 1 0
    outer loop
      vertex 68 55 11
      vertex 68 55 28
      vertex 70.2 55 28
    endloop
  endfacet
  facet normal 0 1 0
    outer loop
      vertex 68 55 11
      vertex 70.2 55 28
      vertex 70.2 55 11
    endloop
  endfacet
  facet normal 0 0 -1
    outer loop
      vertex 75 52.2 11
      vertex 77.2 55 11
      vertex 77.2 52.2 11
    endloop
  endfacet
  facet normal 0 0 -1
    outer loop
      vertex 75 52.2 11
      vertex 75 55 11
      vertex 77.2 55 11
    endloop
  endfacet
  facet normal 0 0 1
    outer loop
      vertex 75 52.2 28
      vertex 77.2 52.2 28
      vertex 77.2 55 28
    endloop
  endfacet
  facet normal 0 0 1
    outer loop
      vertex 75 52.2 28
      vertex 77.2 55 28
      vertex 75 55 28
    endloop
  endfacet
  facet normal -1 0 0
    outer loop
      vertex 75 52.2 11
      vertex 75 52.2 28
      vertex 75 55 28
    endloop
  endfacet
  facet normal -1 0 0
    outer loop
      vertex 75 52.2 11
      vertex 75 55 28
      vertex 75 55 11
    endloop
  endfacet
  facet normal 1 0 0
    outer loop
      vertex 77.2 52.2 11
      vertex 77.2 55 11
      vertex 77.2 55 28
    endloop
  endfacet
  facet normal 1 0 0
    outer loop
      vertex 77.2 52.2 11
      vertex 77.2 55 28
      vertex 77.2 52.2 28
    endloop
  endfacet
  facet normal 0 -1 0
    outer loop
      vertex 75 52.2 11
      vertex 77.2 52.2 11
      vertex 77.2 52.2 28
    endloop
  endfacet
  facet normal 0 -1 0
    outer loop
      vertex 75 52.2 11
      vertex 77.2 52.2 28
      vertex 75 52.2 28
    endloop
  endfacet
  facet normal 0 1 0
    outer loop
      vertex 75 55 11
      vertex 75 55 28
      vertex 77.2 55 28
    endloop
  endfacet
  facet normal 0 1 0
    outer loop
      vertex 75 55 11
      vertex 77.2 55 28
      vertex 77.2 55 11
    endloop
  endfacet
  facet normal 0 0 -1
    outer loop
      vertex 82 52.2 11
      vertex 84.2 55 11
      vertex 84.2 52.2 11
    endloop
  endfacet
  facet normal 0 0 -1
    outer loop
      vertex 82 52.2 11
      vertex 82 55 11
      vertex 84.2 55 11
    endloop
  endfacet
  facet normal 0 0 1
    outer loop
      vertex 82 52.2 28
      vertex 84.2 52.2 28
      vertex 84.2 55 28
    endloop
  endfacet
  facet normal 0 0 1
    outer loop
      vertex 82 52.2 28
      vertex 84.2 55 28
      vertex 82 55 28
    endloop
  endfacet
  facet normal -1 0 0
    outer loop
      vertex 82 52.2 11
      vertex 82 52.2 28
      vertex 82 55 28
    endloop
  endfacet
  facet normal -1 0 0
    outer loop
      vertex 82 52.2 11
      vertex 82 55 28
      vertex 82 55 11
    endloop
  endfacet
  facet normal 1 0 0
    outer loop
      vertex 84.2 52.2 11
      vertex 84.2 55 11
      vertex 84.2 55 28
    endloop
  endfacet
  facet normal 1 0 0
    outer loop
      vertex 84.2 52.2 11
      vertex 84.2 55 28
      vertex 84.2 52.2 28
    endloop
  endfacet
  facet normal 0 -1 0
    outer loop
      vertex 82 52.2 11
      vertex 84.2 52.2 11
      vertex 84.2 52.2 28
    endloop
  endfacet
  facet normal 0 -1 0
    outer loop
      vertex 82 52.2 11
      vertex 84.2 52.2 28
      vertex 82 52.2 28
    endloop
  endfacet
  facet normal 0 1 0
    outer loop
      vertex 82 55 11
      vertex 82 55 28
      vertex 84.2 55 28
    endloop
  endfacet
  facet normal 0 1 0
    outer loop
      vertex 82 55 11
      vertex 84.2 55 28
      vertex 84.2 55 11
    endloop
  endfacet
  facet normal 0 0 -1
    outer loop
      vertex 12 52.2 0
      vertex 15 55 0
      vertex 15 52.2 0
    endloop
  endfacet
  facet normal 0 0 -1
    outer loop
      vertex 12 52.2 0
      vertex 12 55 0
      vertex 15 55 0
    endloop
  endfacet
  facet normal 0 0 1
    outer loop
      vertex 12 52.2 32
      vertex 15 52.2 32
      vertex 15 55 32
    endloop
  endfacet
  facet normal 0 0 1
    outer loop
      vertex 12 52.2 32
      vertex 15 55 32
      vertex 12 55 32
    endloop
  endfacet
  facet normal -1 0 0
    outer loop
      vertex 12 52.2 0
      vertex 12 52.2 32
      vertex 12 55 32
    endloop
  endfacet
  facet normal -1 0 0
    outer loop
      vertex 12 52.2 0
      vertex 12 55 32
      vertex 12 55 0
    endloop
  endfacet
  facet normal 1 0 0
    outer loop
      vertex 15 52.2 0
      vertex 15 55 0
      vertex 15 55 32
    endloop
  endfacet
  facet normal 1 0 0
    outer loop
      vertex 15 52.2 0
      vertex 15 55 32
      vertex 15 52.2 32
    endloop
  endfacet
  facet normal 0 -1 0
    outer loop
      vertex 12 52.2 0
      vertex 15 52.2 0
      vertex 15 52.2 32
    endloop
  endfacet
  facet normal 0 -1 0
    outer loop
      vertex 12 52.2 0
      vertex 15 52.2 32
      vertex 12 52.2 32
    endloop
  endfacet
  facet normal 0 1 0
    outer loop
      vertex 12 55 0
      vertex 12 55 32
      vertex 15 55 32
    endloop
  endfacet
  facet normal 0 1 0
    outer loop
      vertex 12 55 0
      vertex 15 55 32
      vertex 15 55 0
    endloop
  endfacet
  facet normal 0 0 -1
    outer loop
      vertex 85 52.2 0
      vertex 88 55 0
      vertex 88 52.2 0
    endloop
  endfacet
  facet normal 0 0 -1
    outer loop
      vertex 85 52.2 0
      vertex 85 55 0
      vertex 88 55 0
    endloop
  endfacet
  facet normal 0 0 1
    outer loop
      vertex 85 52.2 32
      vertex 88 52.2 32
      vertex 88 55 32
    endloop
  endfacet
  facet normal 0 0 1
    outer loop
      vertex 85 52.2 32
      vertex 88 55 32
      vertex 85 55 32
    endloop
  endfacet
  facet normal -1 0 0
    outer loop
      vertex 85 52.2 0
      vertex 85 52.2 32
      vertex 85 55 32
    endloop
  endfacet
  facet normal -1 0 0
    outer loop
      vertex 85 52.2 0
      vertex 85 55 32
      vertex 85 55 0
    endloop
  endfacet
  facet normal 1 0 0
    outer loop
      vertex 88 52.2 0
      vertex 88 55 0
      vertex 88 55 32
    endloop
  endfacet
  facet normal 1 0 0
    outer loop
      vertex 88 52.2 0
      vertex 88 55 32
      vertex 88 52.2 32
    endloop
  endfacet
  facet normal 0 -1 0
    outer loop
      vertex 85 52.2 0
      vertex 88 52.2 0
      vertex 88 52.2 32
    endloop
  endfacet
  facet normal 0 -1 0
    outer loop
      vertex 85 52.2 0
      vertex 88 52.2 32
      vertex 85 52.2 32
    endloop
  endfacet
  facet normal 0 1 0
    outer loop
      vertex 85 55 0
      vertex 85 55 32
      vertex 88 55 32
    endloop
  endfacet
  facet normal 0 1 0
    outer loop
      vertex 85 55 0
      vertex 88 55 32
      vertex 88 55 0
    endloop
  endfacet
  facet normal 0 0 -1
    outer loop
      vertex 0 52.2 32
      vertex 100 55 32
      vertex 100 52.2 32
    endloop
  endfacet
  facet normal 0 0 -1
    outer loop
      vertex 0 52.2 32
      vertex 0 55 32
      vertex 100 55 32
    endloop
  endfacet
  facet normal 0 0 1
    outer loop
      vertex 0 52.2 80
      vertex 100 52.2 80
      vertex 100 55 80
    endloop
  endfacet
  facet normal 0 0 1
    outer loop
      vertex 0 52.2 80
      vertex 100 55 80
      vertex 0 55 80
    endloop
  endfacet
  facet normal -1 0 0
    outer loop
      vertex 0 52.2 32
      vertex 0 52.2 80
      vertex 0 55 80
    endloop
  endfacet
  facet normal -1 0 0
    outer loop
      vertex 0 52.2 32
      vertex 0 55 80
      vertex 0 55 32
    endloop
  endfacet
  facet normal 1 0 0
    outer loop
      vertex 100 52.2 32
      vertex 100 55 32
      vertex 100 55 80
    endloop
  endfacet
  facet normal 1 0 0
    outer loop
      vertex 100 52.2 32
      vertex 100 55 80
      vertex 100 52.2 80
    endloop
  endfacet
  facet normal 0 -1 0
    outer loop
      vertex 0 52.2 32
      vertex 100 52.2 32
      vertex 100 52.2 80
    endloop
  endfacet
  facet normal 0 -1 0
    outer loop
      vertex 0 52.2 32
      vertex 100 52.2 80
      vertex 0 52.2 80
    endloop
  endfacet
  facet normal 0 1 0
    outer loop
      vertex 0 55 32
      vertex 0 55 80
      vertex 100 55 80
    endloop
  endfacet
  facet normal 0 1 0
    outer loop
      vertex 0 55 32
      vertex 100 55 80
      vertex 100 55 32
    endloop
  endfacet
  facet normal 0 0 -1
    outer loop
      vertex 0 52.2 76
      vertex 100 55 76
      vertex 100 52.2 76
    endloop
  endfacet
  facet normal 0 0 -1
    outer loop
      vertex 0 52.2 76
      vertex 0 55 76
      vertex 100 55 76
    endloop
  endfacet
  facet normal 0 0 1
    outer loop
      vertex 0 52.2 80
      vertex 100 52.2 80
      vertex 100 55 80
    endloop
  endfacet
  facet normal 0 0 1
    outer loop
      vertex 0 52.2 80
      vertex 100 55 80
      vertex 0 55 80
    endloop
  endfacet
  facet normal -1 0 0
    outer loop
      vertex 0 52.2 76
      vertex 0 52.2 80
      vertex 0 55 80
    endloop
  endfacet
  facet normal -1 0 0
    outer loop
      vertex 0 52.2 76
      vertex 0 55 80
      vertex 0 55 76
    endloop
  endfacet
  facet normal 1 0 0
    outer loop
      vertex 100 52.2 76
      vertex 100 55 76
      vertex 100 55 80
    endloop
  endfacet
  facet normal 1 0 0
    outer loop
      vertex 100 52.2 76
      vertex 100 55 80
      vertex 100 52.2 80
    endloop
  endfacet
  facet normal 0 -1 0
    outer loop
      vertex 0 52.2 76
      vertex 100 52.2 76
      vertex 100 52.2 80
    endloop
  endfacet
  facet normal 0 -1 0
    outer loop
      vertex 0 52.2 76
      vertex 100 52.2 80
      vertex 0 52.2 80
    endloop
  endfacet
  facet normal 0 1 0
    outer loop
      vertex 0 55 76
      vertex 0 55 80
      vertex 100 55 80
    endloop
  endfacet
  facet normal 0 1 0
    outer loop
      vertex 0 55 76
      vertex 100 55 80
      vertex 100 55 76
    endloop
  endfacet
  facet normal 0 0 -1
    outer loop
      vertex 5 52.2 52
      vertex 95 55 52
      vertex 95 52.2 52
    endloop
  endfacet
  facet normal 0 0 -1
    outer loop
      vertex 5 52.2 52
      vertex 5 55 52
      vertex 95 55 52
    endloop
  endfacet
  facet normal 0 0 1
    outer loop
      vertex 5 52.2 55
      vertex 95 52.2 55
      vertex 95 55 55
    endloop
  endfacet
  facet normal 0 0 1
    outer loop
      vertex 5 52.2 55
      vertex 95 55 55
      vertex 5 55 55
    endloop
  endfacet
  facet normal -1 0 0
    outer loop
      vertex 5 52.2 52
      vertex 5 52.2 55
      vertex 5 55 55
    endloop
  endfacet
  facet normal -1 0 0
    outer loop
      vertex 5 52.2 52
      vertex 5 55 55
      vertex 5 55 52
    endloop
  endfacet
  facet normal 1 0 0
    outer loop
      vertex 95 52.2 52
      vertex 95 55 52
      vertex 95 55 55
    endloop
  endfacet
  facet normal 1 0 0
    outer loop
      vertex 95 52.2 52
      vertex 95 55 55
      vertex 95 52.2 55
    endloop
  endfacet
  facet normal 0 -1 0
    outer loop
      vertex 5 52.2 52
      vertex 95 52.2 52
      vertex 95 52.2 55
    endloop
  endfacet
  facet normal 0 -1 0
    outer loop
      vertex 5 52.2 52
      vertex 95 52.2 55
      vertex 5 52.2 55
    endloop
  endfacet
  facet normal 0 1 0
    outer loop
      vertex 5 55 52
      vertex 5 55 55
      vertex 95 55 55
    endloop
  endfacet
  facet normal 0 1 0
    outer loop
      vertex 5 55 52
      vertex 95 55 55
      vertex 95 55 52
    endloop
  endfacet
  facet normal 0 0 -1
    outer loop
      vertex 12 53.8 42
      vertex 88 56.6 42
      vertex 88 53.8 42
    endloop
  endfacet
  facet normal 0 0 -1
    outer loop
      vertex 12 53.8 42
      vertex 12 56.6 42
      vertex 88 56.6 42
    endloop
  endfacet
  facet normal 0 0 1
    outer loop
      vertex 12 53.8 46
      vertex 88 53.8 46
      vertex 88 56.6 46
    endloop
  endfacet
  facet normal 0 0 1
    outer loop
      vertex 12 53.8 46
      vertex 88 56.6 46
      vertex 12 56.6 46
    endloop
  endfacet
  facet normal -1 0 0
    outer loop
      vertex 12 53.8 42
      vertex 12 53.8 46
      vertex 12 56.6 46
    endloop
  endfacet
  facet normal -1 0 0
    outer loop
      vertex 12 53.8 42
      vertex 12 56.6 46
      vertex 12 56.6 42
    endloop
  endfacet
  facet normal 1 0 0
    outer loop
      vertex 88 53.8 42
      vertex 88 56.6 42
      vertex 88 56.6 46
    endloop
  endfacet
  facet normal 1 0 0
    outer loop
      vertex 88 53.8 42
      vertex 88 56.6 46
      vertex 88 53.8 46
    endloop
  endfacet
  facet normal 0 -1 0
    outer loop
      vertex 12 53.8 42
      vertex 88 53.8 42
      vertex 88 53.8 46
    endloop
  endfacet
  facet normal 0 -1 0
    outer loop
      vertex 12 53.8 42
      vertex 88 53.8 46
      vertex 12 53.8 46
    endloop
  endfacet
  facet normal 0 1 0
    outer loop
      vertex 12 56.6 42
      vertex 12 56.6 46
      vertex 88 56.6 46
    endloop
  endfacet
  facet normal 0 1 0
    outer loop
      vertex 12 56.6 42
      vertex 88 56.6 46
      vertex 88 56.6 42
    endloop
  endfacet
  facet normal 0 0 -1
    outer loop
      vertex 0 -55 0
      vertex 4 -41 0
      vertex 4 -55 0
    endloop
  endfacet
  facet normal 0 0 -1
    outer loop
      vertex 0 -55 0
      vertex 0 -41 0
      vertex 4 -41 0
    endloop
  endfacet
  facet normal 0 0 1
    outer loop
      vertex 0 -55 80
      vertex 4 -55 80
      vertex 4 -41 80
    endloop
  endfacet
  facet normal 0 0 1
    outer loop
      vertex 0 -55 80
      vertex 4 -41 80
      vertex 0 -41 80
    endloop
  endfacet
  facet normal -1 0 0
    outer loop
      vertex 0 -55 0
      vertex 0 -55 80
      vertex 0 -41 80
    endloop
  endfacet
  facet normal -1 0 0
    outer loop
      vertex 0 -55 0
      vertex 0 -41 80
      vertex 0 -41 0
    endloop
  endfacet
  facet normal 1 0 0
    outer loop
      vertex 4 -55 0
      vertex 4 -41 0
      vertex 4 -41 80
    endloop
  endfacet
  facet normal 1 0 0
    outer loop
      vertex 4 -55 0
      vertex 4 -41 80
      vertex 4 -55 80
    endloop
  endfacet
  facet normal 0 -1 0
    outer loop
      vertex 0 -55 0
      vertex 4 -55 0
      vertex 4 -55 80
    endloop
  endfacet
  facet normal 0 -1 0
    outer loop
      vertex 0 -55 0
      vertex 4 -55 80
      vertex 0 -55 80
    endloop
  endfacet
  facet normal 0 1 0
    outer loop
      vertex 0 -41 0
      vertex 0 -41 80
      vertex 4 -41 80
    endloop
  endfacet
  facet normal 0 1 0
    outer loop
      vertex 0 -41 0
      vertex 4 -41 80
      vertex 4 -41 0
    endloop
  endfacet
  facet normal 0 0 -1
    outer loop
      vertex 0 41 0
      vertex 4 55 0
      vertex 4 41 0
    endloop
  endfacet
  facet normal 0 0 -1
    outer loop
      vertex 0 41 0
      vertex 0 55 0
      vertex 4 55 0
    endloop
  endfacet
  facet normal 0 0 1
    outer loop
      vertex 0 41 80
      vertex 4 41 80
      vertex 4 55 80
    endloop
  endfacet
  facet normal 0 0 1
    outer loop
      vertex 0 41 80
      vertex 4 55 80
      vertex 0 55 80
    endloop
  endfacet
  facet normal -1 0 0
    outer loop
      vertex 0 41 0
      vertex 0 41 80
      vertex 0 55 80
    endloop
  endfacet
  facet normal -1 0 0
    outer loop
      vertex 0 41 0
      vertex 0 55 80
      vertex 0 55 0
    endloop
  endfacet
  facet normal 1 0 0
    outer loop
      vertex 4 41 0
      vertex 4 55 0
      vertex 4 55 80
    endloop
  endfacet
  facet normal 1 0 0
    outer loop
      vertex 4 41 0
      vertex 4 55 80
      vertex 4 41 80
    endloop
  endfacet
  facet normal 0 -1 0
    outer loop
      vertex 0 41 0
      vertex 4 41 0
      vertex 4 41 80
    endloop
  endfacet
  facet normal 0 -1 0
    outer loop
      vertex 0 41 0
      vertex 4 41 80
      vertex 0 41 80
    endloop
  endfacet
  facet normal 0 1 0
    outer loop
      vertex 0 55 0
      vertex 0 55 80
      vertex 4 55 80
    endloop
  endfacet
  facet normal 0 1 0
    outer loop
      vertex 0 55 0
      vertex 4 55 80
      vertex 4 55 0
    endloop
  endfacet
  facet normal 0 0 -1
    outer loop
      vertex 0 -55 0
      vertex 4 55 0
      vertex 4 -55 0
    endloop
  endfacet
  facet normal 0 0 -1
    outer loop
      vertex 0 -55 0
      vertex 0 55 0
      vertex 4 55 0
    endloop
  endfacet
  facet normal 0 0 1
    outer loop
      vertex 0 -55 10
      vertex 4 -55 10
      vertex 4 55 10
    endloop
  endfacet
  facet normal 0 0 1
    outer loop
      vertex 0 -55 10
      vertex 4 55 10
      vertex 0 55 10
    endloop
  endfacet
  facet normal -1 0 0
    outer loop
      vertex 0 -55 0
      vertex 0 -55 10
      vertex 0 55 10
    endloop
  endfacet
  facet normal -1 0 0
    outer loop
      vertex 0 -55 0
      vertex 0 55 10
      vertex 0 55 0
    endloop
  endfacet
  facet normal 1 0 0
    outer loop
      vertex 4 -55 0
      vertex 4 55 0
      vertex 4 55 10
    endloop
  endfacet
  facet normal 1 0 0
    outer loop
      vertex 4 -55 0
      vertex 4 55 10
      vertex 4 -55 10
    endloop
  endfacet
  facet normal 0 -1 0
    outer loop
      vertex 0 -55 0
      vertex 4 -55 0
      vertex 4 -55 10
    endloop
  endfacet
  facet normal 0 -1 0
    outer loop
      vertex 0 -55 0
      vertex 4 -55 10
      vertex 0 -55 10
    endloop
  endfacet
  facet normal 0 1 0
    outer loop
      vertex 0 55 0
      vertex 0 55 10
      vertex 4 55 10
    endloop
  endfacet
  facet normal 0 1 0
    outer loop
      vertex 0 55 0
      vertex 4 55 10
      vertex 4 55 0
    endloop
  endfacet
  facet normal 0 0 -1
    outer loop
      vertex 96 -55 0
      vertex 100 -43 0
      vertex 100 -55 0
    endloop
  endfacet
  facet normal 0 0 -1
    outer loop
      vertex 96 -55 0
      vertex 96 -43 0
      vertex 100 -43 0
    endloop
  endfacet
  facet normal 0 0 1
    outer loop
      vertex 96 -55 80
      vertex 100 -55 80
      vertex 100 -43 80
    endloop
  endfacet
  facet normal 0 0 1
    outer loop
      vertex 96 -55 80
      vertex 100 -43 80
      vertex 96 -43 80
    endloop
  endfacet
  facet normal -1 0 0
    outer loop
      vertex 96 -55 0
      vertex 96 -55 80
      vertex 96 -43 80
    endloop
  endfacet
  facet normal -1 0 0
    outer loop
      vertex 96 -55 0
      vertex 96 -43 80
      vertex 96 -43 0
    endloop
  endfacet
  facet normal 1 0 0
    outer loop
      vertex 100 -55 0
      vertex 100 -43 0
      vertex 100 -43 80
    endloop
  endfacet
  facet normal 1 0 0
    outer loop
      vertex 100 -55 0
      vertex 100 -43 80
      vertex 100 -55 80
    endloop
  endfacet
  facet normal 0 -1 0
    outer loop
      vertex 96 -55 0
      vertex 100 -55 0
      vertex 100 -55 80
    endloop
  endfacet
  facet normal 0 -1 0
    outer loop
      vertex 96 -55 0
      vertex 100 -55 80
      vertex 96 -55 80
    endloop
  endfacet
  facet normal 0 1 0
    outer loop
      vertex 96 -43 0
      vertex 96 -43 80
      vertex 100 -43 80
    endloop
  endfacet
  facet normal 0 1 0
    outer loop
      vertex 96 -43 0
      vertex 100 -43 80
      vertex 100 -43 0
    endloop
  endfacet
  facet normal 0 0 -1
    outer loop
      vertex 96 43 0
      vertex 100 55 0
      vertex 100 43 0
    endloop
  endfacet
  facet normal 0 0 -1
    outer loop
      vertex 96 43 0
      vertex 96 55 0
      vertex 100 55 0
    endloop
  endfacet
  facet normal 0 0 1
    outer loop
      vertex 96 43 80
      vertex 100 43 80
      vertex 100 55 80
    endloop
  endfacet
  facet normal 0 0 1
    outer loop
      vertex 96 43 80
      vertex 100 55 80
      vertex 96 55 80
    endloop
  endfacet
  facet normal -1 0 0
    outer loop
      vertex 96 43 0
      vertex 96 43 80
      vertex 96 55 80
    endloop
  endfacet
  facet normal -1 0 0
    outer loop
      vertex 96 43 0
      vertex 96 55 80
      vertex 96 55 0
    endloop
  endfacet
  facet normal 1 0 0
    outer loop
      vertex 100 43 0
      vertex 100 55 0
      vertex 100 55 80
    endloop
  endfacet
  facet normal 1 0 0
    outer loop
      vertex 100 43 0
      vertex 100 55 80
      vertex 100 43 80
    endloop
  endfacet
  facet normal 0 -1 0
    outer loop
      vertex 96 43 0
      vertex 100 43 0
      vertex 100 43 80
    endloop
  endfacet
  facet normal 0 -1 0
    outer loop
      vertex 96 43 0
      vertex 100 43 80
      vertex 96 43 80
    endloop
  endfacet
  facet normal 0 1 0
    outer loop
      vertex 96 55 0
      vertex 96 55 80
      vertex 100 55 80
    endloop
  endfacet
  facet normal 0 1 0
    outer loop
      vertex 96 55 0
      vertex 100 55 80
      vertex 100 55 0
    endloop
  endfacet
  facet normal 0 0 -1
    outer loop
      vertex 96 -55 0
      vertex 100 55 0
      vertex 100 -55 0
    endloop
  endfacet
  facet normal 0 0 -1
    outer loop
      vertex 96 -55 0
      vertex 96 55 0
      vertex 100 55 0
    endloop
  endfacet
  facet normal 0 0 1
    outer loop
      vertex 96 -55 9
      vertex 100 -55 9
      vertex 100 55 9
    endloop
  endfacet
  facet normal 0 0 1
    outer loop
      vertex 96 -55 9
      vertex 100 55 9
      vertex 96 55 9
    endloop
  endfacet
  facet normal -1 0 0
    outer loop
      vertex 96 -55 0
      vertex 96 -55 9
      vertex 96 55 9
    endloop
  endfacet
  facet normal -1 0 0
    outer loop
      vertex 96 -55 0
      vertex 96 55 9
      vertex 96 55 0
    endloop
  endfacet
  facet normal 1 0 0
    outer loop
      vertex 100 -55 0
      vertex 100 55 0
      vertex 100 55 9
    endloop
  endfacet
  facet normal 1 0 0
    outer loop
      vertex 100 -55 0
      vertex 100 55 9
      vertex 100 -55 9
    endloop
  endfacet
  facet normal 0 -1 0
    outer loop
      vertex 96 -55 0
      vertex 100 -55 0
      vertex 100 -55 9
    endloop
  endfacet
  facet normal 0 -1 0
    outer loop
      vertex 96 -55 0
      vertex 100 -55 9
      vertex 96 -55 9
    endloop
  endfacet
  facet normal 0 1 0
    outer loop
      vertex 96 55 0
      vertex 96 55 9
      vertex 100 55 9
    endloop
  endfacet
  facet normal 0 1 0
    outer loop
      vertex 96 55 0
      vertex 100 55 9
      vertex 100 55 0
    endloop
  endfacet
  facet normal 0 0 -1
    outer loop
      vertex 18 -48 8
      vertex 88 -44 8
      vertex 88 -48 8
    endloop
  endfacet
  facet normal 0 0 -1
    outer loop
      vertex 18 -48 8
      vertex 18 -44 8
      vertex 88 -44 8
    endloop
  endfacet
  facet normal 0 0 1
    outer loop
      vertex 18 -48 13
      vertex 88 -48 13
      vertex 88 -44 13
    endloop
  endfacet
  facet normal 0 0 1
    outer loop
      vertex 18 -48 13
      vertex 88 -44 13
      vertex 18 -44 13
    endloop
  endfacet
  facet normal -1 0 0
    outer loop
      vertex 18 -48 8
      vertex 18 -48 13
      vertex 18 -44 13
    endloop
  endfacet
  facet normal -1 0 0
    outer loop
      vertex 18 -48 8
      vertex 18 -44 13
      vertex 18 -44 8
    endloop
  endfacet
  facet normal 1 0 0
    outer loop
      vertex 88 -48 8
      vertex 88 -44 8
      vertex 88 -44 13
    endloop
  endfacet
  facet normal 1 0 0
    outer loop
      vertex 88 -48 8
      vertex 88 -44 13
      vertex 88 -48 13
    endloop
  endfacet
  facet normal 0 -1 0
    outer loop
      vertex 18 -48 8
      vertex 88 -48 8
      vertex 88 -48 13
    endloop
  endfacet
  facet normal 0 -1 0
    outer loop
      vertex 18 -48 8
      vertex 88 -48 13
      vertex 18 -48 13
    endloop
  endfacet
  facet normal 0 1 0
    outer loop
      vertex 18 -44 8
      vertex 18 -44 13
      vertex 88 -44 13
    endloop
  endfacet
  facet normal 0 1 0
    outer loop
      vertex 18 -44 8
      vertex 88 -44 13
      vertex 88 -44 8
    endloop
  endfacet
  facet normal 0 0 -1
    outer loop
      vertex 18 44 8
      vertex 88 48 8
      vertex 88 44 8
    endloop
  endfacet
  facet normal 0 0 -1
    outer loop
      vertex 18 44 8
      vertex 18 48 8
      vertex 88 48 8
    endloop
  endfacet
  facet normal 0 0 1
    outer loop
      vertex 18 44 13
      vertex 88 44 13
      vertex 88 48 13
    endloop
  endfacet
  facet normal 0 0 1
    outer loop
      vertex 18 44 13
      vertex 88 48 13
      vertex 18 48 13
    endloop
  endfacet
  facet normal -1 0 0
    outer loop
      vertex 18 44 8
      vertex 18 44 13
      vertex 18 48 13
    endloop
  endfacet
  facet normal -1 0 0
    outer loop
      vertex 18 44 8
      vertex 18 48 13
      vertex 18 48 8
    endloop
  endfacet
  facet normal 1 0 0
    outer loop
      vertex 88 44 8
      vertex 88 48 8
      vertex 88 48 13
    endloop
  endfacet
  facet normal 1 0 0
    outer loop
      vertex 88 44 8
      vertex 88 48 13
      vertex 88 44 13
    endloop
  endfacet
  facet normal 0 -1 0
    outer loop
      vertex 18 44 8
      vertex 88 44 8
      vertex 88 44 13
    endloop
  endfacet
  facet normal 0 -1 0
    outer loop
      vertex 18 44 8
      vertex 88 44 13
      vertex 18 44 13
    endloop
  endfacet
  facet normal 0 1 0
    outer loop
      vertex 18 48 8
      vertex 18 48 13
      vertex 88 48 13
    endloop
  endfacet
  facet normal 0 1 0
    outer loop
      vertex 18 48 8
      vertex 88 48 13
      vertex 88 48 8
    endloop
  endfacet
endsolid pip_shell_v6_front_open_top_body
